<svg width="254" height="53" viewBox="0 0 254 53" fill="none" xmlns="http://www.w3.org/2000/svg">
<path d="M4.78125 17C30.6215 40.9259 32.9015 40.2222 57.2218 17" stroke="white" stroke-width="8" stroke-linecap="round"/>
<path d="M4 36C30.6087 11.3626 32.9565 12.0872 58 36" stroke="white" stroke-width="8" stroke-linecap="round"/>
<path d="M73.06 13H83.2C91.72 13 97.24 18.44 97.24 27C97.24 35.56 91.72 41 83.2 41H73.06V13ZM83 17.96H78.74V36.04H83C88.02 36.04 91.5 33.12 91.5 27C91.5 20.88 88.02 17.96 83 17.96ZM103.649 32.28C104.129 35.16 106.529 37.1 109.849 37.1C112.689 37.1 114.729 36.14 116.669 34.32L119.429 37.08C117.169 39.64 114.169 41.48 109.869 41.48C102.789 41.48 98.0891 36.7 98.0891 30.64C98.0891 24.58 102.929 19.8 109.349 19.8C115.689 19.8 120.209 24.5 120.209 30.28C120.209 30.92 120.109 31.72 119.969 32.28H103.649ZM109.309 24.18C106.709 24.18 104.529 25.84 103.789 28.36H114.549C113.949 25.9 111.989 24.18 109.309 24.18ZM134.505 20.28H140.225L132.825 41H126.905L119.505 20.28H125.225L129.865 34.38L134.505 20.28ZM153.669 26.16H167.989V27C167.989 36.02 162.669 41.48 154.369 41.48C146.569 41.48 140.149 35.16 140.149 27C140.149 18.84 146.469 12.52 154.369 12.52C161.289 12.52 165.989 16.22 167.649 22.14H161.489C160.229 19.28 158.029 17.48 154.369 17.48C149.569 17.48 145.889 21.6 145.889 27C145.889 32.4 149.669 36.52 154.369 36.52C158.149 36.52 161.109 34.14 161.749 30.74H153.669V26.16ZM174.407 32.28C174.887 35.16 177.287 37.1 180.607 37.1C183.447 37.1 185.487 36.14 187.427 34.32L190.187 37.08C187.927 39.64 184.927 41.48 180.627 41.48C173.547 41.48 168.847 36.7 168.847 30.64C168.847 24.58 173.687 19.8 180.107 19.8C186.447 19.8 190.967 24.5 190.967 30.28C190.967 30.92 190.867 31.72 190.727 32.28H174.407ZM180.067 24.18C177.467 24.18 175.287 25.84 174.547 28.36H185.307C184.707 25.9 182.747 24.18 180.067 24.18ZM197.133 32.28C197.613 35.16 200.013 37.1 203.333 37.1C206.173 37.1 208.213 36.14 210.153 34.32L212.913 37.08C210.653 39.64 207.653 41.48 203.353 41.48C196.273 41.48 191.573 36.7 191.573 30.64C191.573 24.58 196.413 19.8 202.833 19.8C209.173 19.8 213.693 24.5 213.693 30.28C213.693 30.92 213.593 31.72 213.453 32.28H197.133ZM202.793 24.18C200.193 24.18 198.013 25.84 197.273 28.36H208.033C207.433 25.9 205.473 24.18 202.793 24.18ZM227.28 20.28H232.78C232.78 25.62 231.34 29.08 228.6 30.76L234.38 41H228.28L223.28 31.94H221.16V41H215.66V11.8H221.16V27.22H222.74C225.18 27.22 227.28 25.82 227.28 20.28ZM233.834 37.16L236.094 34.62C237.714 36.2 239.314 37.08 241.354 37.08C243.254 37.08 244.394 36.28 244.394 35.02C244.394 33.78 243.514 33.02 240.834 32.48C236.334 31.56 234.094 29.28 234.094 25.84C234.094 22.36 237.074 19.8 241.574 19.8C246.254 19.8 248.994 22.38 249.654 26.34H244.474C244.194 25 243.294 24.2 241.854 24.2C240.554 24.2 239.474 24.86 239.474 25.92C239.474 27.02 240.454 27.92 242.774 28.4C247.574 29.38 249.774 31.58 249.774 35.08C249.774 38.74 246.714 41.48 241.574 41.48C238.474 41.48 235.954 39.98 233.834 37.16Z" fill="white"/>
</svg>
