<svg width="668" height="900" viewBox="0 0 668 900" fill="none" xmlns="http://www.w3.org/2000/svg">
<rect width="668" height="900" fill="white"/>
<path d="M80.66 94H66.52V73.308H69.74V90.892H80.66V94ZM80.5084 86.44C80.5084 84.256 81.2551 82.3893 82.7484 80.84C84.2604 79.2907 86.1737 78.516 88.4884 78.516C90.8031 78.516 92.7071 79.2907 94.2004 80.84C95.7124 82.3707 96.4684 84.2373 96.4684 86.44C96.4684 88.68 95.7124 90.5653 94.2004 92.096C92.7257 93.6267 90.8217 94.392 88.4884 94.392C86.1737 94.392 84.2604 93.6267 82.7484 92.096C81.2551 90.5467 80.5084 88.6613 80.5084 86.44ZM93.3604 86.44C93.3604 85.0587 92.8844 83.8733 91.9324 82.884C91.0177 81.876 89.8697 81.372 88.4884 81.372C87.1257 81.372 85.9684 81.876 85.0164 82.884C84.0831 83.8733 83.6164 85.0587 83.6164 86.44C83.6164 87.84 84.0831 89.0347 85.0164 90.024C85.9684 91.0133 87.1257 91.508 88.4884 91.508C89.8511 91.508 90.9991 91.0133 91.9324 90.024C92.8844 89.0347 93.3604 87.84 93.3604 86.44ZM109.977 80.84V78.908H112.945V92.46C112.945 94.8867 112.198 96.8187 110.705 98.256C109.211 99.6933 107.233 100.412 104.769 100.412C102.267 100.412 100.018 99.6933 98.0207 98.256L99.3647 95.876C101.026 97.0707 102.809 97.668 104.713 97.668C106.299 97.668 107.559 97.22 108.493 96.324C109.426 95.4467 109.893 94.2987 109.893 92.88V91.788C108.567 93.2813 106.878 94.028 104.825 94.028C102.622 94.028 100.811 93.2907 99.3927 91.816C97.974 90.3413 97.2647 88.4933 97.2647 86.272C97.2647 84.0507 98.002 82.212 99.4767 80.756C100.951 79.2813 102.781 78.544 104.965 78.544C106.962 78.544 108.633 79.3093 109.977 80.84ZM105.217 91.284C106.617 91.284 107.774 90.808 108.689 89.856C109.603 88.9227 110.061 87.7373 110.061 86.3C110.061 84.844 109.603 83.6587 108.689 82.744C107.755 81.8107 106.598 81.344 105.217 81.344C103.854 81.344 102.706 81.82 101.773 82.772C100.858 83.6867 100.401 84.8627 100.401 86.3C100.401 87.756 100.858 88.9507 101.773 89.884C102.706 90.8173 103.854 91.284 105.217 91.284ZM114.622 86.44C114.622 84.256 115.369 82.3893 116.862 80.84C118.374 79.2907 120.288 78.516 122.602 78.516C124.917 78.516 126.821 79.2907 128.314 80.84C129.826 82.3707 130.582 84.2373 130.582 86.44C130.582 88.68 129.826 90.5653 128.314 92.096C126.84 93.6267 124.936 94.392 122.602 94.392C120.288 94.392 118.374 93.6267 116.862 92.096C115.369 90.5467 114.622 88.6613 114.622 86.44ZM127.474 86.44C127.474 85.0587 126.998 83.8733 126.046 82.884C125.132 81.876 123.984 81.372 122.602 81.372C121.24 81.372 120.082 81.876 119.13 82.884C118.197 83.8733 117.73 85.0587 117.73 86.44C117.73 87.84 118.197 89.0347 119.13 90.024C120.082 91.0133 121.24 91.508 122.602 91.508C123.965 91.508 125.113 91.0133 126.046 90.024C126.998 89.0347 127.474 87.84 127.474 86.44ZM147.677 94.308C144.671 94.308 142.151 93.3187 140.117 91.34C138.063 89.3427 137.037 86.804 137.037 83.724C137.037 80.588 138.082 78.012 140.173 75.996C142.263 73.9613 144.793 72.944 147.761 72.944C149.609 72.944 151.335 73.3547 152.941 74.176C154.527 74.9787 155.769 76.052 156.665 77.396L154.369 79.468C152.67 77.2093 150.495 76.08 147.845 76.08C145.754 76.08 143.981 76.808 142.525 78.264C141.087 79.7387 140.369 81.5587 140.369 83.724C140.369 85.908 141.078 87.7 142.497 89.1C143.934 90.5 145.707 91.2 147.817 91.2C150.561 91.2 152.782 90.08 154.481 87.84L156.777 89.856C155.787 91.2187 154.49 92.3013 152.885 93.104C151.279 93.9067 149.543 94.308 147.677 94.308ZM157.098 86.44C157.098 84.256 157.845 82.3893 159.338 80.84C160.85 79.2907 162.764 78.516 165.078 78.516C167.393 78.516 169.297 79.2907 170.79 80.84C172.302 82.3707 173.058 84.2373 173.058 86.44C173.058 88.68 172.302 90.5653 170.79 92.096C169.316 93.6267 167.412 94.392 165.078 94.392C162.764 94.392 160.85 93.6267 159.338 92.096C157.845 90.5467 157.098 88.6613 157.098 86.44ZM169.95 86.44C169.95 85.0587 169.474 83.8733 168.522 82.884C167.608 81.876 166.46 81.372 165.078 81.372C163.716 81.372 162.558 81.876 161.606 82.884C160.673 83.8733 160.206 85.0587 160.206 86.44C160.206 87.84 160.673 89.0347 161.606 90.024C162.558 91.0133 163.716 91.508 165.078 91.508C166.441 91.508 167.589 91.0133 168.522 90.024C169.474 89.0347 169.95 87.84 169.95 86.44ZM177.83 94H174.75V78.908H177.774V81.036C178.222 80.252 178.866 79.636 179.706 79.188C180.546 78.74 181.498 78.516 182.562 78.516C184.224 78.516 185.624 79.0573 186.762 80.14C187.92 81.2413 188.498 82.8 188.498 84.816V94H185.39V85.684C185.39 84.3213 185.064 83.2667 184.41 82.52C183.757 81.7547 182.88 81.372 181.778 81.372C180.621 81.372 179.669 81.7827 178.922 82.604C178.194 83.4067 177.83 84.452 177.83 85.74V94ZM195.358 94.364C194.163 94.364 193.053 94.0933 192.026 93.552C190.999 93.0107 190.178 92.2267 189.562 91.2L191.55 89.408C191.998 90.136 192.567 90.7053 193.258 91.116C193.967 91.508 194.686 91.704 195.414 91.704C196.142 91.704 196.739 91.5267 197.206 91.172C197.673 90.7987 197.906 90.3507 197.906 89.828C197.906 89.0813 197.477 88.5027 196.618 88.092C196.394 87.9613 195.787 87.7093 194.798 87.336C193.79 86.9067 193.155 86.6173 192.894 86.468C191.289 85.628 190.486 84.3867 190.486 82.744C190.486 81.4933 190.953 80.4573 191.886 79.636C192.857 78.8147 194.107 78.404 195.638 78.404C197.785 78.404 199.437 79.1787 200.594 80.728L198.802 82.632C197.906 81.5307 196.805 80.98 195.498 80.98C194.882 80.98 194.387 81.1387 194.014 81.456C193.659 81.7733 193.482 82.1653 193.482 82.632C193.482 83.3787 193.902 83.9293 194.742 84.284L196.282 84.928C197.271 85.3387 197.981 85.656 198.41 85.88C200.127 86.776 200.986 88.0453 200.986 89.688C200.986 91.0133 200.463 92.124 199.418 93.02C198.373 93.916 197.019 94.364 195.358 94.364ZM211.539 90.696L212.603 93.104C211.483 93.944 210.093 94.364 208.431 94.364C206.807 94.364 205.575 93.8693 204.735 92.88C203.895 91.8907 203.475 90.4627 203.475 88.596V81.54H200.871V78.908H203.503V73.56H206.555V78.908H211.763V81.54H206.555V88.652C206.555 90.5747 207.33 91.536 208.879 91.536C209.701 91.536 210.587 91.256 211.539 90.696ZM216.369 94H213.289V78.908H216.229V81.064C217.125 79.3653 218.553 78.516 220.513 78.516C221.147 78.516 221.745 78.6 222.305 78.768L222.025 81.764C221.521 81.5773 220.97 81.484 220.373 81.484C219.159 81.484 218.189 81.8947 217.461 82.716C216.733 83.5373 216.369 84.7227 216.369 86.272V94ZM229.484 94.364C227.468 94.364 225.863 93.776 224.668 92.6C223.474 91.424 222.876 89.828 222.876 87.812V78.908H225.956V87.784C225.956 88.9227 226.264 89.828 226.88 90.5C227.515 91.172 228.383 91.508 229.484 91.508C230.604 91.508 231.472 91.1813 232.088 90.528C232.704 89.8747 233.012 88.96 233.012 87.784V78.908H236.12V87.812C236.12 89.8653 235.532 91.4707 234.356 92.628C233.18 93.7853 231.556 94.364 229.484 94.364ZM245.573 94.336C243.221 94.336 241.307 93.5987 239.833 92.124C238.339 90.6307 237.593 88.7453 237.593 86.468C237.593 84.172 238.349 82.2773 239.861 80.784C241.391 79.2907 243.333 78.544 245.685 78.544C247.197 78.544 248.578 78.908 249.829 79.636C251.098 80.364 252.031 81.344 252.629 82.576L250.081 84.004C249.614 83.2013 248.989 82.5667 248.205 82.1C247.439 81.6147 246.609 81.372 245.713 81.372C244.275 81.372 243.081 81.8573 242.129 82.828C241.177 83.8173 240.701 85.0307 240.701 86.468C240.701 87.868 241.167 89.0627 242.101 90.052C243.015 91.0227 244.182 91.508 245.601 91.508C246.497 91.508 247.355 91.2653 248.177 90.78C248.998 90.2947 249.605 89.6787 249.997 88.932L252.545 90.416C251.929 91.592 250.986 92.544 249.717 93.272C248.466 93.9813 247.085 94.336 245.573 94.336ZM263.006 90.696L264.07 93.104C262.95 93.944 261.559 94.364 259.898 94.364C258.274 94.364 257.042 93.8693 256.202 92.88C255.362 91.8907 254.942 90.4627 254.942 88.596V81.54H252.338V78.908H254.97V73.56H258.022V78.908H263.23V81.54H258.022V88.652C258.022 90.5747 258.797 91.536 260.346 91.536C261.167 91.536 262.054 91.256 263.006 90.696ZM266.379 76.92C265.782 76.92 265.278 76.724 264.867 76.332C264.457 75.9213 264.251 75.4173 264.251 74.82C264.251 74.2413 264.457 73.756 264.867 73.364C265.278 72.972 265.782 72.776 266.379 72.776C266.958 72.776 267.443 72.972 267.835 73.364C268.227 73.756 268.423 74.2413 268.423 74.82C268.423 75.4173 268.227 75.9213 267.835 76.332C267.443 76.724 266.958 76.92 266.379 76.92ZM267.863 78.908V94H264.783V78.908H267.863ZM269.541 86.44C269.541 84.256 270.288 82.3893 271.781 80.84C273.293 79.2907 275.207 78.516 277.521 78.516C279.836 78.516 281.74 79.2907 283.233 80.84C284.745 82.3707 285.501 84.2373 285.501 86.44C285.501 88.68 284.745 90.5653 283.233 92.096C281.759 93.6267 279.855 94.392 277.521 94.392C275.207 94.392 273.293 93.6267 271.781 92.096C270.288 90.5467 269.541 88.6613 269.541 86.44ZM282.393 86.44C282.393 85.0587 281.917 83.8733 280.965 82.884C280.051 81.876 278.903 81.372 277.521 81.372C276.159 81.372 275.001 81.876 274.049 82.884C273.116 83.8733 272.649 85.0587 272.649 86.44C272.649 87.84 273.116 89.0347 274.049 90.024C275.001 91.0133 276.159 91.508 277.521 91.508C278.884 91.508 280.032 91.0133 280.965 90.024C281.917 89.0347 282.393 87.84 282.393 86.44ZM290.273 94H287.193V78.908H290.217V81.036C290.665 80.252 291.309 79.636 292.149 79.188C292.989 78.74 293.941 78.516 295.005 78.516C296.667 78.516 298.067 79.0573 299.205 80.14C300.363 81.2413 300.941 82.8 300.941 84.816V94H297.833V85.684C297.833 84.3213 297.507 83.2667 296.853 82.52C296.2 81.7547 295.323 81.372 294.221 81.372C293.064 81.372 292.112 81.7827 291.365 82.604C290.637 83.4067 290.273 84.452 290.273 85.74V94Z" fill="black"/>
<g clip-path="url(#clip0_270_471)">
<rect width="540" height="500" transform="translate(64 257)" fill="white"/>
<path d="M340.107 519.04L241.207 656.548L413.621 519.04H340.107Z" fill="#272934"/>
<path d="M322.709 514.608L262.185 356.41L282.307 576.024L322.709 514.608Z" fill="#272934"/>
<path d="M335.576 525.028L169.383 756.016L529.468 258.426" stroke="#272934" stroke-width="0.494622" stroke-dasharray="3.96 3.96"/>
<path d="M413.727 518.845V755.274V254.964" stroke="#272934" stroke-width="0.494622" stroke-dasharray="3.96 3.96"/>
<path d="M340.522 519.092V754.532V257.189" stroke="#272934" stroke-width="0.494622" stroke-dasharray="3.96 3.96"/>
<path d="M322.716 514.64V755.769V257.931" stroke="#272934" stroke-width="0.494622" stroke-dasharray="3.96 3.96"/>
<path d="M282.404 575.974V755.77V256.943" stroke="#272934" stroke-width="0.494622" stroke-dasharray="3.96 3.96"/>
<path d="M241.598 656.102V757.5V257.189" stroke="#272934" stroke-width="0.494622" stroke-dasharray="3.96 3.96"/>
<path d="M262.372 356.609V257.685V755.769" stroke="#272934" stroke-width="0.494622" stroke-dasharray="3.96 3.96"/>
<path d="M282.898 575.479H-35.3911H690.467" stroke="#272934" stroke-width="0.494622" stroke-dasharray="3.96 3.96"/>
<path d="M-38.8535 518.844H690.962" stroke="#272934" stroke-width="0.494622" stroke-dasharray="3.96 3.96"/>
<rect x="286" y="682" width="33.4243" height="20.5688" rx="10.2844" fill="#FC0146"/>
<path d="M301.133 693.283L299.59 694.928H302.542V696.214H297.636V695.052L300.012 692.532C300.128 692.415 300.3 692.234 300.526 691.987C300.869 691.576 301.04 691.195 301.04 690.845C301.04 690.537 300.934 690.287 300.721 690.095C300.509 689.896 300.238 689.796 299.909 689.796C299.354 689.796 298.774 690.078 298.171 690.64L297.41 689.632C298.178 688.864 299.045 688.48 300.012 688.48C300.718 688.48 301.304 688.696 301.77 689.128C302.23 689.56 302.459 690.115 302.459 690.794C302.459 691.507 302.017 692.337 301.133 693.283ZM306.37 693.396L308.19 696.214H306.647L305.506 694.322L304.333 696.214H302.78L304.652 693.355L302.976 690.629H304.518L305.536 692.398L306.616 690.629H308.138L306.37 693.396Z" fill="#EAEAEC"/>
<rect x="244" y="322" width="15.9198" height="22.2187" rx="7.95988" fill="#FC0146"/>
<path d="M252.786 333.383L254.547 336.109H253.054L251.95 334.279L250.816 336.109H249.313L251.124 333.343L249.502 330.707H250.995L251.98 332.418L253.025 330.707H254.497L252.786 333.383Z" fill="#EAEAEC"/>
<rect x="547" y="534" width="42.7032" height="26.2789" rx="13.1394" fill="#FC0146"/>
<path d="M564.61 552.264C563.524 552.264 562.486 551.944 561.496 551.304L562.258 549.859C563.055 550.358 563.813 550.608 564.531 550.608C565.048 550.608 565.455 550.49 565.753 550.253C566.06 550.008 566.213 549.688 566.213 549.294C566.213 548.9 566.064 548.58 565.766 548.335C565.469 548.09 565.079 547.967 564.597 547.967H563.362V546.364H564.452C564.925 546.364 565.302 546.25 565.582 546.022C565.863 545.786 566.003 545.484 566.003 545.116C566.003 544.748 565.867 544.454 565.596 544.235C565.333 544.016 564.991 543.907 564.571 543.907C563.975 543.907 563.314 544.165 562.587 544.682L561.719 543.395C562.096 543.035 562.552 542.751 563.086 542.54C563.629 542.33 564.19 542.225 564.768 542.225C565.635 542.225 566.362 542.47 566.949 542.961C567.536 543.443 567.829 544.043 567.829 544.761C567.829 545.269 567.676 545.72 567.369 546.114C567.063 546.509 566.664 546.789 566.174 546.955V547.008C566.761 547.139 567.225 547.424 567.567 547.862C567.908 548.291 568.079 548.804 568.079 549.399C568.079 550.231 567.755 550.919 567.107 551.462C566.467 551.996 565.635 552.264 564.61 552.264ZM572.934 548.506L575.26 552.106H573.289L571.831 549.688L570.333 552.106H568.349L570.74 548.453L568.598 544.971H570.569L571.87 547.231L573.25 544.971H575.194L572.934 548.506Z" fill="#EAEAEC"/>
</g>
<defs>
<clipPath id="clip0_270_471">
<rect width="540" height="500" fill="white" transform="translate(64 257)"/>
</clipPath>
</defs>
</svg>
