<svg width="1400" height="600" viewBox="0 0 1400 600" fill="none" xmlns="http://www.w3.org/2000/svg">
<rect width="1400" height="600" fill="white"/>
<rect x="533.546" y="236" width="128" height="128" rx="32" fill="#60D1F6"/>
<path d="M601.338 303.753L571.791 344.835L623.302 303.753H601.338Z" fill="#272934"/>
<path d="M596.141 302.429L578.058 255.165L584.07 320.778L596.141 302.429Z" fill="#272934"/>
<path d="M701.955 343.712H691.636V276.819H697.339L725.399 317.824L753.279 276.819H759.163V343.712H748.663V300.897L726.848 332.76H723.77L701.955 300.897V343.712ZM774.352 288.496C772.421 288.496 770.792 287.863 769.464 286.595C768.136 285.268 767.473 283.638 767.473 281.707C767.473 279.837 768.136 278.268 769.464 277C770.792 275.733 772.421 275.099 774.352 275.099C776.223 275.099 777.792 275.733 779.059 277C780.326 278.268 780.96 279.837 780.96 281.707C780.96 283.638 780.326 285.268 779.059 286.595C777.792 287.863 776.223 288.496 774.352 288.496ZM779.15 294.923V343.712H769.193V294.923H779.15ZM799.554 338.184L793.05 329.186L819.393 313.9C816.863 311.01 814.659 308.986 812.78 307.83C810.901 306.601 808.697 305.987 806.167 305.987C804.144 305.987 802.084 306.276 799.988 306.854C797.965 307.432 795.471 308.48 792.508 309.998L788.389 299.699C791.279 298.398 794.134 297.314 796.953 296.447C799.771 295.58 802.771 295.146 805.95 295.146C808.841 295.146 811.371 295.544 813.539 296.339C815.779 297.134 817.984 298.471 820.152 300.35C822.32 302.229 824.705 304.794 827.307 308.047V286.582H785.57V276.283H850.289V286.582H839.665V343.712H827.307V320.839L799.554 338.184ZM864.708 286.582V343.712H852.35V286.582H843.352V276.283H875.332V286.582H864.708ZM852.892 277.042C851.591 272.2 850.29 268.333 848.989 265.443C847.688 262.552 846.206 260.456 844.544 259.155C842.882 257.782 840.822 257.095 838.365 257.095C836.92 257.095 835.583 257.24 834.354 257.529C833.053 257.818 831.897 258.179 830.885 258.613L827.524 248.531C829.187 247.881 830.885 247.411 832.619 247.122C834.354 246.76 836.269 246.58 838.365 246.58C841.256 246.58 843.894 247.013 846.279 247.881C848.736 248.676 850.976 250.193 853 252.434C855.024 254.602 856.939 257.673 858.746 261.648C860.552 265.623 862.323 270.755 864.057 277.042H852.892ZM860.48 254.602C860.48 252.578 861.167 250.844 862.54 249.398C863.913 247.953 865.611 247.23 867.635 247.23C869.731 247.23 871.465 247.953 872.838 249.398C874.212 250.844 874.898 252.578 874.898 254.602C874.898 256.77 874.212 258.577 872.838 260.022C871.465 261.395 869.731 262.082 867.635 262.082C865.611 262.082 863.913 261.395 862.54 260.022C861.167 258.577 860.48 256.77 860.48 254.602Z" fill="#272934"/>
</svg>
