<svg width="1728" height="728" viewBox="0 0 1728 728" fill="none" xmlns="http://www.w3.org/2000/svg">
<g filter="url(#filter0_b_590_1590)">
<g clip-path="url(#clip0_590_1590)">
<rect x="777" y="436.088" width="375" height="667" rx="20" transform="rotate(-30.3421 777 436.088)" fill="white" fill-opacity="0.05"/>
<mask id="path-2-inside-1_590_1590" fill="white">
<path d="M787.103 453.348C781.523 443.816 784.728 431.565 794.26 425.985L1083.37 256.755C1092.91 251.176 1105.16 254.38 1110.74 263.913L1137.01 308.79C1142.59 318.323 1139.38 330.574 1129.85 336.154L840.735 505.383C831.203 510.963 818.952 507.758 813.372 498.226L787.103 453.348Z"/>
</mask>
<path d="M777 436.088L1100.63 246.652L777 436.088ZM1137.01 308.79C1142.86 318.799 1139.5 331.663 1129.49 337.522L842.104 505.741C832.094 511.6 819.231 508.235 813.372 498.226C818.673 507.282 830.698 510.1 840.23 504.52L1129.34 335.291C1138.88 329.711 1142.31 317.846 1137.01 308.79ZM823.475 515.486L777 436.088L823.475 515.486ZM1100.63 246.652L1147.11 326.05L1100.63 246.652Z" fill="#E3E3E3" fill-opacity="0.2" mask="url(#path-2-inside-1_590_1590)"/>
<rect x="817.099" y="439.268" width="45" height="45" rx="22.5" transform="rotate(-30.3421 817.099 439.268)" fill="#7358E7" fill-opacity="0.4"/>
<path d="M843.084 439.121C839.514 441.211 838.312 445.816 840.404 449.39C842.456 452.895 846.856 454.13 850.498 452.163C850.599 452.085 850.708 452.021 850.798 451.987C850.825 451.971 850.839 451.963 850.866 451.947C850.879 451.939 850.879 451.939 850.893 451.931C854.31 449.767 855.388 445.326 853.349 441.812C851.257 438.238 846.654 437.032 843.084 439.121Z" fill="#7358E7"/>
<path d="M860.288 451.372C854.659 451.17 847.966 455.087 845.357 460.112C844.185 462.395 844.098 464.608 845.106 466.331C846.114 468.053 848.078 469.047 850.62 469.138C853.45 469.249 856.542 468.322 859.249 466.738C861.956 465.154 864.277 462.911 865.566 460.389C866.723 458.114 866.819 455.915 865.802 454.179C864.78 452.465 862.83 451.463 860.288 451.372Z" fill="#7358E7"/>
<path d="M1003.34 646.584C999.989 640.864 1001.91 633.514 1007.63 630.166L1220.8 505.391C1226.52 502.043 1233.87 503.965 1237.22 509.685L1263.49 554.562L1039.96 685.399C1034.24 688.747 1026.89 686.824 1023.54 681.105L1003.34 646.584Z" fill="#7358E7" fill-opacity="0.4"/>
<rect x="1013.69" y="640.521" width="247" height="8" rx="4" transform="rotate(-30.3421 1013.69 640.521)" fill="#7358E7"/>
<rect x="1021.78" y="654.33" width="247" height="8" rx="4" transform="rotate(-30.3421 1021.78 654.33)" fill="#7358E7"/>
<rect x="1096.31" y="629.241" width="170" height="8" rx="4" transform="rotate(-30.3421 1096.31 629.241)" fill="#7358E7"/>
<g filter="url(#filter1_b_590_1590)">
<path d="M1218.17 621.644C1214.82 615.925 1207.47 614.002 1201.75 617.35L988.58 742.125C982.861 745.473 980.938 752.824 984.286 758.543L1010.55 803.421L1234.08 672.584C1239.8 669.236 1241.72 661.885 1238.37 656.165L1218.17 621.644Z" fill="#E3E3E3" fill-opacity="0.2"/>
<rect x="994.643" y="752.481" width="247" height="8" rx="4" transform="rotate(-30.3421 994.643 752.481)" fill="#F8F8F8" fill-opacity="0.6"/>
<rect x="1002.72" y="766.29" width="247" height="8" rx="4" transform="rotate(-30.3421 1002.72 766.29)" fill="#F8F8F8" fill-opacity="0.6"/>
<rect x="1010.81" y="780.098" width="170" height="8" rx="4" transform="rotate(-30.3421 1010.81 780.098)" fill="#F8F8F8" fill-opacity="0.6"/>
</g>
<g filter="url(#filter2_b_590_1590)">
<path d="M1122.18 457.671C1118.84 451.951 1111.49 450.028 1105.77 453.376L892.599 578.151C886.879 581.499 884.956 588.85 888.304 594.57L914.573 639.447L1138.1 508.61C1143.82 505.262 1145.74 497.911 1142.39 492.192L1122.18 457.671Z" fill="#E3E3E3" fill-opacity="0.2"/>
<rect x="898.661" y="588.508" width="247" height="8" rx="4" transform="rotate(-30.3421 898.661 588.508)" fill="#F8F8F8" fill-opacity="0.6"/>
<rect x="906.743" y="602.316" width="247" height="8" rx="4" transform="rotate(-30.3421 906.743 602.316)" fill="#F8F8F8" fill-opacity="0.6"/>
<rect x="914.826" y="616.124" width="125" height="8" rx="4" transform="rotate(-30.3421 914.826 616.124)" fill="#F8F8F8" fill-opacity="0.6"/>
</g>
<rect x="872.69" y="422.009" width="112" height="10" rx="5" transform="rotate(-30.3421 872.69 422.009)" fill="white" fill-opacity="0.6"/>
<rect x="880.268" y="434.954" width="84" height="10" rx="5" transform="rotate(-30.3421 880.268 434.954)" fill="white" fill-opacity="0.6"/>
<path d="M1090.73 795.887C1087.38 790.167 1089.3 782.816 1095.02 779.468L1308.19 654.693C1313.91 651.345 1321.26 653.268 1324.61 658.988L1358.96 717.673L1135.44 848.51C1129.72 851.858 1122.37 849.936 1119.02 844.216L1090.73 795.887Z" fill="#7358E7" fill-opacity="0.4"/>
<rect x="1101.09" y="789.824" width="247" height="8" rx="4" transform="rotate(-30.3421 1101.09 789.824)" fill="#7358E7"/>
<rect x="1109.17" y="803.633" width="247" height="8" rx="4" transform="rotate(-30.3421 1109.17 803.633)" fill="#7358E7"/>
<rect x="1117.25" y="817.441" width="247" height="8" rx="4" transform="rotate(-30.3421 1117.25 817.441)" fill="#7358E7"/>
<rect x="1220.27" y="775.682" width="137" height="8" rx="4" transform="rotate(-30.3421 1220.27 775.682)" fill="#7358E7"/>
</g>
</g>
<g clip-path="url(#clip1_590_1590)">
<rect x="1223.56" y="320.413" width="375" height="350" rx="20" transform="rotate(-30.3421 1223.56 320.413)" fill="#7358E7" fill-opacity="0.4"/>
<rect x="1379.82" y="525.007" width="120" height="52.5132" rx="26.2566" transform="rotate(-30.3421 1379.82 525.007)" fill="#7358E7"/>
<rect x="1417" y="527.715" width="60.8471" height="11.5922" rx="5.79608" transform="rotate(-30.3421 1417 527.715)" fill="#423975"/>
<rect x="1272.22" y="341.183" width="66" height="66" rx="32.7443" transform="rotate(-30.3421 1272.22 341.183)" fill="#7358E7"/>
<path d="M1330.78 359.705C1329.15 360.662 1327.11 360.718 1325.42 359.834C1324.54 359.389 1323.78 358.684 1323.24 357.818C1322.35 356.362 1322.17 354.624 1322.75 353.039C1323.18 351.853 1324 350.845 1325.06 350.182C1326.37 349.404 1327.81 349.167 1329.26 349.512C1330.71 349.856 1331.93 350.74 1332.7 352.01C1333.24 352.876 1333.52 353.864 1333.51 354.881C1333.52 355.447 1333.44 356.024 1333.26 356.575C1332.89 357.837 1332.04 358.941 1330.87 359.652C1330.85 359.664 1330.82 359.682 1330.78 359.705ZM1326.06 351.631C1326.04 351.643 1326.01 351.661 1325.99 351.673C1325.25 352.13 1324.7 352.806 1324.4 353.633C1324 354.718 1324.13 355.904 1324.74 356.902C1325.1 357.491 1325.62 357.97 1326.22 358.282C1327.42 358.911 1328.84 358.89 1329.96 358.156C1330.74 357.669 1331.32 356.923 1331.58 356.052C1331.71 355.666 1331.77 355.279 1331.77 354.902C1331.76 354.2 1331.57 353.526 1331.21 352.937C1330.68 352.07 1329.84 351.46 1328.85 351.226C1327.9 350.985 1326.9 351.135 1326.06 351.631Z" fill="#433A76"/>
<path d="M1328.45 357.003C1328.26 357.116 1328.04 357.151 1327.81 357.099L1326.22 356.726C1325.75 356.611 1325.46 356.143 1325.57 355.668C1325.69 355.194 1326.16 354.907 1326.63 355.022L1327.4 355.207L1328.09 352.745C1328.22 352.275 1328.7 352.008 1329.17 352.139C1329.64 352.271 1329.91 352.751 1329.78 353.221L1328.86 356.494C1328.79 356.714 1328.64 356.897 1328.45 357.003Z" fill="#433A76"/>
<path d="M1318.13 354.303C1318 354.38 1317.85 354.427 1317.69 354.427L1305.76 354.486C1305.27 354.487 1304.88 354.093 1304.88 353.606C1304.88 353.118 1305.27 352.726 1305.75 352.731L1317.17 352.674L1322.77 342.807C1323.01 342.382 1323.55 342.242 1323.96 342.477C1324.39 342.716 1324.53 343.257 1324.3 343.676L1318.45 353.984C1318.37 354.109 1318.27 354.226 1318.13 354.303Z" fill="#433A76"/>
<path d="M1323.49 363.447C1323.07 363.69 1322.53 363.547 1322.29 363.134L1316.93 353.98C1316.69 353.566 1316.83 353.022 1317.24 352.78C1317.66 352.537 1318.2 352.68 1318.44 353.093L1323.8 362.247C1324.04 362.661 1323.9 363.205 1323.49 363.447Z" fill="#433A76"/>
<path d="M1323.72 363.841C1322.83 364.361 1321.83 364.689 1320.91 364.698L1313.77 364.865C1311.84 364.914 1309.55 363.64 1308.57 361.964L1305.22 356.252C1304.24 354.576 1304.26 351.965 1305.24 350.291L1308.88 344.149C1309.8 342.569 1311.96 341.304 1313.8 341.272L1320.94 341.105C1322.87 341.056 1325.16 342.33 1326.15 344.005L1329.49 349.718C1329.55 349.819 1329.6 349.9 1329.63 350.012C1329.74 350.304 1329.68 350.638 1329.47 350.867C1329.27 351.105 1328.95 351.21 1328.64 351.163C1326.89 350.833 1325.07 351.844 1324.42 353.538C1324 354.608 1324.1 355.813 1324.68 356.812C1325.03 357.407 1325.54 357.898 1326.15 358.22C1326.31 358.314 1326.45 358.378 1326.61 358.435C1326.86 358.518 1327.06 358.715 1327.15 358.961C1327.24 359.206 1327.21 359.481 1327.07 359.71L1325.82 361.81C1325.37 362.616 1324.61 363.322 1323.72 363.841ZM1311.9 343.656C1311.28 344.023 1310.72 344.526 1310.41 345.044L1306.77 351.186C1306.1 352.294 1306.11 354.244 1306.76 355.354L1310.1 361.066C1310.75 362.176 1312.46 363.128 1313.74 363.095L1320.88 362.928C1322.1 362.905 1323.7 361.966 1324.32 360.914L1325.09 359.626C1324.32 359.169 1323.65 358.5 1323.18 357.692C1322.32 356.219 1322.18 354.472 1322.79 352.896C1323.51 350.993 1325.34 349.615 1327.26 349.367L1324.63 344.866C1323.98 343.755 1322.27 342.804 1320.99 342.836L1313.85 343.004C1313.24 343.049 1312.53 343.29 1311.9 343.656Z" fill="#433A76"/>
<rect x="1325.76" y="432.664" width="247" height="14" rx="7" transform="rotate(-30.3421 1325.76 432.664)" fill="#7358E7"/>
<rect x="1336.88" y="451.65" width="247" height="14" rx="7" transform="rotate(-30.3421 1336.88 451.65)" fill="#7358E7"/>
<rect x="1347.99" y="470.637" width="170" height="14" rx="7" transform="rotate(-30.3421 1347.99 470.637)" fill="#7358E7"/>
</g>
<g opacity="0.7">
<g clip-path="url(#clip2_590_1590)">
<rect x="1472.98" y="700.673" width="64.6297" height="64.6297" rx="31.2006" transform="rotate(-30.3421 1472.98 700.673)" fill="white"/>
<path d="M1519.71 714.319L1509.13 720.511C1508.73 720.741 1508.22 720.606 1507.98 720.212L1503.48 712.518C1502.01 709.999 1502.86 706.751 1505.38 705.276L1514.03 700.21C1514.42 699.979 1514.94 700.115 1515.17 700.509L1520.8 710.126C1521.66 711.588 1521.17 713.463 1519.71 714.319ZM1509 718.646L1518.86 712.876C1519.53 712.488 1519.75 711.634 1519.36 710.97L1514.15 702.075L1506.22 706.719C1504.5 707.727 1503.92 709.952 1504.92 711.674L1509 718.646Z" fill="#3E4958"/>
<path d="M1528.85 716.711L1527.89 717.274C1527.5 717.505 1526.98 717.369 1526.75 716.975C1526.36 716.311 1525.51 716.088 1524.84 716.476C1524.18 716.865 1523.96 717.719 1524.35 718.382C1524.58 718.776 1524.44 719.295 1524.05 719.526L1520.2 721.777C1519.81 722.008 1519.29 721.872 1519.06 721.478C1518.67 720.815 1517.81 720.591 1517.15 720.98C1516.49 721.368 1516.26 722.222 1516.65 722.885C1516.88 723.28 1516.75 723.798 1516.35 724.029L1515.39 724.592C1513.4 725.757 1510.84 725.087 1509.67 723.096L1507.99 720.211C1507.75 719.817 1507.89 719.299 1508.28 719.068L1518.86 712.876C1519.53 712.487 1519.75 711.634 1519.36 710.97L1515.42 704.238C1515.19 703.844 1515.33 703.326 1515.72 703.095L1517.49 702.059C1518.44 701.502 1519.62 701.499 1520.57 702.051L1523.9 703.963C1524.15 704.112 1524.32 704.39 1524.32 704.685C1524.32 704.979 1524.16 705.254 1523.9 705.406L1522.66 706.133C1522.53 706.211 1522.48 706.379 1522.56 706.514L1524.25 709.399C1524.33 709.533 1524.5 709.577 1524.63 709.498L1527.52 707.81C1527.91 707.579 1528.43 707.715 1528.66 708.109L1530.35 710.994C1531.52 712.985 1530.85 715.546 1528.85 716.711ZM1527.67 715.466L1528.01 715.268C1529.2 714.57 1529.61 713.031 1528.91 711.838L1527.64 709.674L1525.48 710.941C1524.55 711.481 1523.35 711.166 1522.81 710.243L1521.12 707.358C1520.58 706.435 1520.89 705.236 1521.82 704.69L1519.74 703.494C1519.31 703.243 1518.77 703.248 1518.33 703.502L1517.29 704.115L1520.8 710.126C1521.66 711.588 1521.17 713.463 1519.71 714.318L1509.85 720.088L1511.12 722.252C1511.81 723.444 1513.35 723.847 1514.55 723.149L1514.88 722.952C1514.55 721.66 1515.09 720.246 1516.31 719.537C1517.52 718.828 1519.02 719.049 1519.98 719.969L1522.59 718.443C1522.26 717.152 1522.8 715.737 1524.01 715.028C1525.22 714.319 1526.71 714.545 1527.67 715.466Z" fill="#3E4958"/>
<path d="M1519.4 724.827C1517.94 725.683 1516.06 725.192 1515.21 723.731C1514.35 722.269 1514.84 720.394 1516.31 719.538C1517.77 718.682 1519.64 719.173 1520.5 720.635C1521.35 722.096 1520.86 723.972 1519.4 724.827ZM1517.15 720.98C1516.49 721.369 1516.26 722.223 1516.65 722.886C1517.04 723.55 1517.89 723.773 1518.56 723.385C1519.22 722.996 1519.44 722.142 1519.06 721.479C1518.67 720.815 1517.81 720.592 1517.15 720.98Z" fill="#3E4958"/>
<path d="M1527.1 720.323C1525.63 721.179 1523.76 720.688 1522.9 719.227C1522.05 717.765 1522.54 715.89 1524 715.034C1525.46 714.178 1527.34 714.669 1528.19 716.131C1529.05 717.592 1528.56 719.468 1527.1 720.323ZM1524.84 716.477C1524.18 716.865 1523.96 717.719 1524.34 718.382C1524.73 719.046 1525.59 719.269 1526.25 718.881C1526.91 718.492 1527.14 717.639 1526.75 716.975C1526.36 716.311 1525.51 716.088 1524.84 716.477Z" fill="#3E4958"/>
<path d="M1528.36 709.253L1525.48 710.942C1524.55 711.482 1523.35 711.167 1522.81 710.244L1521.12 707.359C1520.58 706.436 1520.89 705.231 1521.82 704.691L1523.06 703.965C1523.32 703.813 1523.64 703.806 1523.9 703.964L1527.23 705.887C1527.35 705.959 1527.46 706.061 1527.53 706.186L1528.66 708.109C1528.89 708.504 1528.76 709.022 1528.36 709.253ZM1522.66 706.133C1522.53 706.212 1522.48 706.38 1522.56 706.514L1524.25 709.399C1524.33 709.534 1524.5 709.578 1524.63 709.499L1526.8 708.233L1526.2 707.223L1523.48 705.655L1522.66 706.133Z" fill="#3E4958"/>
<rect x="1526.53" y="792.154" width="247" height="14" rx="7" transform="rotate(-30.3421 1526.53 792.154)" fill="#E3E3E3"/>
<rect x="1537.65" y="811.141" width="247" height="14" rx="7" transform="rotate(-30.3421 1537.65 811.141)" fill="#E3E3E3"/>
</g>
<rect x="1425.02" y="680.082" width="374" height="349" rx="19.5" transform="rotate(-30.3421 1425.02 680.082)" stroke="white"/>
</g>
<path opacity="0.5" d="M1129 271.978C1129 271.978 1243 200.477 1271 183.977C1299 167.477 1339.5 247.977 1339.5 247.977" stroke="#D9D9D9" stroke-width="5" stroke-dasharray="10 10"/>
<path opacity="0.5" d="M1253 194.478L1199 105.978" stroke="#D9D9D9" stroke-width="5" stroke-dasharray="10 10"/>
<rect x="1109" y="45.1084" width="94" height="94" rx="47" transform="rotate(-28 1109 45.1084)" fill="white" fill-opacity="0.25"/>
<rect x="1126.16" y="50.3555" width="68.62" height="68.62" rx="34.31" transform="rotate(-28 1126.16 50.3555)" fill="white"/>
<path d="M1172.44 70.9439L1165.49 68.8204L1164.58 71.8028L1174.51 74.838L1180.77 54.3644L1177.78 53.4526L1172.44 70.9439Z" fill="#292D32"/>
<path opacity="0.5" d="M836.768 563.978C836.768 563.978 722.623 635.569 694.587 652.09C666.551 668.611 621 590 621 590" stroke="#D9D9D9" stroke-width="5.00636" stroke-dasharray="10.01 10.01"/>
<g filter="url(#filter3_b_590_1590)">
<rect x="-79" y="551.736" width="700.901" height="415.298" rx="13.7973" transform="rotate(-34.675 -79 551.736)" fill="white" fill-opacity="0.1"/>
<rect x="-32.4932" y="563.185" width="289.743" height="59.3283" rx="6.89863" transform="rotate(-34.675 -32.4932 563.185)" fill="#6C51E0"/>
<path d="M77.3156 515.15L85.107 526.413L89.269 523.534C91.3659 522.083 91.8627 519.814 90.6099 518.003C89.6868 516.668 88.1464 516.207 86.7352 516.714C87.4625 515.694 87.5461 514.321 86.7218 513.129C85.502 511.366 83.352 510.974 81.1916 512.469L77.3156 515.15ZM82.5027 518.608L80.3268 515.463L82.0107 514.298C83.1703 513.496 84.2661 513.654 84.9255 514.607C85.5739 515.544 85.3462 516.641 84.2343 517.41L82.5027 518.608ZM85.8765 523.485L83.6127 520.213L85.6142 518.828C86.7898 518.015 87.9136 518.247 88.584 519.216C89.2763 520.217 88.9583 521.353 87.8145 522.144L85.8765 523.485ZM98.0437 516.195C98.2635 516.513 98.548 516.856 98.7007 517.009L100.464 515.789C100.234 515.525 99.846 515.066 99.4065 514.43L95.0327 508.108L93.19 509.383L96.3549 513.958C97.0582 514.974 96.9968 516.074 95.9324 516.81C94.8205 517.58 93.8152 517.077 93.1558 516.124L90.0129 511.581L88.1702 512.855L91.5439 517.732C92.7308 519.448 94.756 520.067 96.5988 518.792C97.5042 518.166 98.146 517.158 98.0437 516.195ZM97.3213 503.025L95.6534 504.179L96.4556 505.339C96.9281 506.022 96.9254 506.799 96.0994 507.37L95.7022 507.645L96.8341 509.281L98.2638 508.292L100.956 512.184C101.956 513.63 103.439 513.872 104.869 512.883C105.536 512.421 105.798 512.052 105.876 511.928L104.821 510.403C104.753 510.474 104.484 510.73 104.23 510.906C103.546 511.379 103.047 511.301 102.574 510.618L100.091 507.028L101.695 505.918L100.563 504.282L98.9588 505.392L97.3213 503.025ZM102.329 499.561L100.661 500.715L101.463 501.874C101.936 502.557 101.933 503.334 101.107 503.906L100.71 504.181L101.842 505.817L103.271 504.828L105.964 508.72C106.964 510.165 108.447 510.408 109.877 509.419C110.544 508.957 110.805 508.588 110.884 508.464L109.829 506.939C109.76 507.01 109.491 507.266 109.237 507.442C108.554 507.914 108.054 507.837 107.582 507.154L105.098 503.564L106.703 502.454L105.571 500.818L103.966 501.928L102.329 499.561ZM114.366 504.082C113.238 504.862 111.612 504.719 110.502 503.114C109.392 501.51 109.853 499.969 110.981 499.189C112.125 498.398 113.713 498.521 114.823 500.125C115.944 501.745 115.509 503.291 114.366 504.082ZM109.827 497.521C107.524 499.115 107.022 502.022 108.659 504.389C110.308 506.772 113.205 507.327 115.509 505.734C117.828 504.13 118.33 501.222 116.681 498.839C115.044 496.472 112.146 495.917 109.827 497.521ZM119.104 496.294C118.401 495.278 118.396 494.083 119.445 493.358C120.604 492.555 121.561 493.021 122.22 493.974L125.385 498.549L127.228 497.275L123.843 492.382C122.667 490.682 120.816 489.942 118.926 491.25C118.068 491.843 117.4 492.846 117.507 494.087L116.792 493.055L114.997 494.297L120.349 502.033L122.192 500.758L119.104 496.294Z" fill="#F9FAFC"/>
<rect x="231.668" y="378.763" width="319.407" height="59.3283" rx="6.89863" transform="rotate(-34.675 231.668 378.763)" fill="#EEF1FF" fill-opacity="0.1"/>
<path d="M269.03 383.5L267.788 381.705L258.559 388.09L259.8 389.885L263.454 387.357L270.004 396.825L271.91 395.506L265.36 386.039L269.03 383.5ZM272.708 387.979C272.2 387.109 272.252 385.757 273.411 384.955C274.682 384.076 275.846 384.469 276.505 385.352L272.708 387.979ZM278.107 387.227C278.38 388.165 278.215 389.148 277.103 389.918C275.959 390.709 274.455 390.504 273.594 389.362L279.25 385.45C279.243 385.407 279.099 385.131 278.891 384.829C277.198 382.382 274.712 381.777 272.33 383.425C270.376 384.777 269.686 387.65 271.378 390.096C273.191 392.718 276.105 392.957 278.202 391.506C280.06 390.22 280.525 388.278 280.004 386.642L278.107 387.227ZM281.468 388.894L283.581 387.432C283.559 387.095 283.543 383.982 283.537 383.634L287.124 384.982L289.284 383.487L283.747 381.493L283.837 375.817L281.74 377.268L281.77 380.911C281.474 380.787 278.664 379.748 278.356 379.608L276.164 381.125L281.577 383.041L281.468 388.894ZM285.29 371.312L283.622 372.466L284.424 373.626C284.896 374.309 284.894 375.086 284.068 375.657L283.671 375.932L284.802 377.568L286.232 376.579L288.925 380.471C289.925 381.917 291.408 382.159 292.837 381.17C293.505 380.708 293.766 380.34 293.844 380.215L292.789 378.69C292.721 378.761 292.452 379.017 292.198 379.193C291.515 379.666 291.015 379.589 290.543 378.905L288.059 375.315L289.663 374.205L288.532 372.569L286.927 373.679L285.29 371.312ZM293.216 363.645C291.627 364.744 291.24 366.561 292.438 368.293L293.175 369.357L291.824 370.291L292.934 371.896L294.284 370.962L298.526 377.093L300.385 375.808L296.143 369.676L299.479 367.368L303.721 373.5L305.532 372.247L300.18 364.511L295.033 368.071L294.33 367.055C293.67 366.102 294.184 365.418 294.66 365.088C295.01 364.846 295.249 364.751 295.383 364.706L294.295 363.133C294.124 363.158 293.676 363.326 293.216 363.645ZM296.193 363.229C296.644 363.881 297.541 364.058 298.209 363.596C298.876 363.135 299.042 362.221 298.592 361.57C298.13 360.903 297.216 360.736 296.549 361.198C295.882 361.659 295.731 362.562 296.193 363.229ZM305.161 365.528C304.654 364.658 304.705 363.306 305.865 362.504C307.136 361.625 308.3 362.018 308.958 362.901L305.161 365.528ZM310.56 364.776C310.834 365.714 310.668 366.697 309.556 367.467C308.413 368.258 306.909 368.053 306.048 366.911L311.703 362.999C311.697 362.956 311.553 362.68 311.344 362.378C309.652 359.931 307.166 359.326 304.783 360.974C302.829 362.326 302.139 365.199 303.832 367.645C305.645 370.267 308.558 370.506 310.655 369.055C312.514 367.769 312.979 365.827 312.458 364.191L310.56 364.776ZM316.89 364.39L308.934 352.889L307.091 354.164L315.047 365.665L316.89 364.39ZM317.019 358.546C315.997 357.069 316.238 355.516 317.446 354.681C318.653 353.846 320.116 354.195 321.138 355.673C322.16 357.15 322.011 358.733 320.803 359.569C319.549 360.437 318.041 360.023 317.019 358.546ZM317.665 346.849L315.87 348.091L319.1 352.761C318.521 352.433 317.41 352.286 316.06 353.22C313.883 354.726 313.638 357.597 315.176 359.821C316.792 362.156 319.494 362.87 321.718 361.332C322.814 360.573 323.251 359.473 323.165 358.569C323.385 358.887 323.784 359.362 323.937 359.515L325.7 358.295C325.597 358.179 325.126 357.635 324.643 356.936L317.665 346.849Z" fill="white"/>
<rect x="232.148" y="378.85" width="318.717" height="58.6384" rx="6.5537" transform="rotate(-34.675 232.148 378.85)" stroke="white" stroke-opacity="0.3" stroke-width="0.689863"/>
<path d="M91.3588 637.693C94.2341 635.704 94.6859 632.69 93.8755 630.432L91.7325 631.069C92.2304 632.603 91.9854 634.558 90.095 635.866C88.1729 637.195 85.3949 637.05 83.5706 634.413C81.6805 631.681 82.605 629.045 84.4636 627.759C86.3539 626.452 88.1606 626.822 89.4393 627.958L90.8168 626.112C88.9458 624.494 86.0812 623.986 83.2218 625.964C80.2988 627.986 79.0782 632.096 81.6167 635.765C84.1553 639.435 88.3247 639.792 91.3588 637.693ZM95.8197 627.537C95.1702 626.53 95.1987 625.383 96.2153 624.679C97.375 623.877 98.3314 624.343 98.9907 625.296L102.156 629.871L103.998 628.596L100.614 623.704C99.4378 622.004 97.5714 621.275 95.6651 622.594C94.8549 623.154 94.1791 624.045 94.1274 625.09L91.0064 620.579L89.1637 621.854L97.12 633.355L98.9627 632.08L95.8197 627.537ZM103.47 621.986C102.962 621.116 103.014 619.765 104.174 618.962C105.445 618.083 106.609 618.476 107.267 619.359L103.47 621.986ZM108.869 621.234C109.142 622.172 108.977 623.156 107.865 623.925C106.721 624.716 105.218 624.512 104.357 623.369L110.012 619.457C110.006 619.414 109.862 619.138 109.653 618.836C107.961 616.39 105.475 615.784 103.092 617.433C101.138 618.784 100.448 621.657 102.14 624.104C103.954 626.725 106.867 626.964 108.964 625.513C110.823 624.228 111.288 622.285 110.767 620.649L108.869 621.234ZM112.383 613.518C113.558 612.705 114.61 613.105 115.257 613.667L116.492 611.921C115.317 610.901 113.272 610.39 111.191 611.83C108.967 613.368 108.423 616.282 110.071 618.664C111.697 621.015 114.649 621.581 116.92 620.009C118.954 618.603 119.201 616.482 118.731 615.022L116.704 615.555C116.936 616.264 116.963 617.49 115.756 618.326C114.596 619.128 112.991 618.946 111.914 617.39C110.837 615.833 111.255 614.299 112.383 613.518ZM123.048 603.98L120.602 605.672L119.796 610.856L115.027 603.962L113.2 605.226L121.156 616.727L122.983 615.463L121.488 613.303L121.749 611.643L126.208 613.232L128.463 611.672L122.135 609.45L123.048 603.98ZM130.798 610.057L130.083 609.024C131.045 609.463 132.216 609.357 133.312 608.599C135.568 607.039 135.73 604.319 134.115 601.984C132.543 599.713 130.069 598.817 127.749 600.422C126.558 601.246 126.053 602.417 126.121 603.263L122.857 598.545L121.046 599.798L129.003 611.299L130.798 610.057ZM132.267 603.286C133.322 604.811 133.086 606.337 131.879 607.172C130.703 607.985 129.16 607.69 128.105 606.165C127.039 604.624 127.34 603.124 128.516 602.311C129.739 601.465 131.201 601.745 132.267 603.286ZM140.217 601.45C139.089 602.231 137.463 602.087 136.353 600.483C135.243 598.878 135.704 597.338 136.832 596.558C137.976 595.766 139.564 595.889 140.674 597.494C141.795 599.114 141.361 600.659 140.217 601.45ZM135.678 594.89C133.375 596.483 132.873 599.391 134.51 601.757C136.159 604.14 139.056 604.696 141.36 603.102C143.679 601.498 144.181 598.591 142.533 596.208C140.895 593.841 137.998 593.285 135.678 594.89ZM144.951 600.266L147.064 598.804C147.042 598.467 147.026 595.354 147.02 595.006L150.606 596.354L152.767 594.859L147.23 592.864L147.32 587.189L145.223 588.639L145.253 592.282C144.956 592.159 142.147 591.119 141.839 590.98L139.647 592.497L145.059 594.413L144.951 600.266Z" fill="white"/>
<path d="M148.122 684.303C146.999 683.224 144.846 682.318 142.193 684.153C140.096 685.604 139.441 688.358 140.749 690.249C141.914 691.932 143.838 692.269 145.795 691.432L147.615 690.666C148.727 690.203 149.673 690.417 150.179 691.147C150.783 692.021 150.557 693.188 149.207 694.122C147.586 695.243 145.997 694.745 145.073 693.646L143.645 695.385C144.941 696.885 147.534 697.815 150.393 695.837C152.967 694.057 153.227 691.411 152.018 689.664C150.919 688.075 148.987 687.556 146.726 688.533L144.875 689.32C143.869 689.734 143.051 689.502 142.557 688.787C141.963 687.929 142.23 686.617 143.374 685.826C144.883 684.782 146.185 685.408 146.78 686.03L148.122 684.303ZM154.011 681.544L155.888 688.161L150.612 683.895L148.642 685.258L156.504 691.258L158.394 689.95L156.422 683.094L162.191 687.324L164.034 686.049L161.16 676.598L159.285 677.895L161.448 684.315L155.918 680.225L154.011 681.544ZM168.949 682.648L163.598 674.912L161.771 676.176L167.123 683.912L168.949 682.648ZM159.606 673.657C160.067 674.324 160.97 674.475 161.621 674.024C162.288 673.563 162.466 672.665 162.004 671.998C161.543 671.331 160.629 671.164 159.962 671.626C159.311 672.076 159.144 672.99 159.606 673.657ZM165.878 669.835L164.21 670.989L165.013 672.148C165.485 672.831 165.482 673.608 164.656 674.18L164.259 674.454L165.391 676.091L166.821 675.102L169.513 678.993C170.513 680.439 171.996 680.681 173.426 679.692C174.093 679.231 174.355 678.862 174.433 678.737L173.378 677.212C173.309 677.283 173.041 677.54 172.786 677.716C172.103 678.188 171.604 678.111 171.131 677.428L168.648 673.838L170.252 672.728L169.12 671.092L167.516 672.202L165.878 669.835ZM174.52 669.517C175.696 668.703 176.748 669.103 177.395 669.666L178.629 667.919C177.454 666.9 175.41 666.388 173.329 667.828C171.105 669.366 170.56 672.28 172.208 674.663C173.835 677.014 176.786 677.579 179.058 676.008C181.091 674.601 181.339 672.48 180.869 671.02L178.842 671.553C179.074 672.262 179.1 673.489 177.893 674.324C176.733 675.126 175.128 674.945 174.051 673.388C172.974 671.831 173.392 670.297 174.52 669.517ZM181.993 666.907C181.344 665.9 181.372 664.753 182.389 664.05C183.548 663.248 184.505 663.713 185.164 664.667L188.329 669.242L190.172 667.967L186.787 663.074C185.611 661.374 183.745 660.646 181.839 661.964C181.028 662.525 180.353 663.415 180.301 664.461L177.18 659.949L175.337 661.224L183.293 672.725L185.136 671.45L181.993 666.907Z" fill="white"/>
<path d="M411.541 501.234C410.419 500.154 408.266 499.248 405.613 501.084C403.516 502.534 402.861 505.289 404.169 507.179C405.334 508.863 407.258 509.2 409.215 508.362L411.035 507.597C412.147 507.133 413.093 507.347 413.599 508.078C414.203 508.952 413.977 510.118 412.627 511.052C411.006 512.173 409.417 511.676 408.493 510.577L407.065 512.316C408.361 513.816 410.954 514.746 413.813 512.768C416.387 510.988 416.647 508.342 415.438 506.594C414.339 505.006 412.406 504.487 410.146 505.464L408.295 506.251C407.289 506.665 406.471 506.432 405.976 505.718C405.383 504.86 405.65 503.548 406.794 502.757C408.303 501.713 409.605 502.338 410.199 502.961L411.541 501.234ZM420.428 507.84L412.471 496.339L410.629 497.614L418.585 509.115L420.428 507.84ZM423.837 505.481L418.485 497.745L416.658 499.009L422.01 506.745L423.837 505.481ZM414.493 496.49C414.955 497.158 415.858 497.308 416.509 496.858C417.176 496.396 417.354 495.498 416.892 494.831C416.43 494.164 415.517 493.997 414.849 494.459C414.198 494.909 414.032 495.823 414.493 496.49ZM423.967 499.637C422.945 498.16 423.186 496.607 424.393 495.772C425.6 494.937 427.064 495.287 428.086 496.764C429.108 498.242 428.958 499.825 427.751 500.66C426.496 501.528 424.989 501.115 423.967 499.637ZM424.612 487.94L422.817 489.182L426.048 493.852C425.469 493.525 424.357 493.378 423.007 494.312C420.831 495.817 420.585 498.688 422.124 500.912C423.739 503.247 426.441 503.962 428.665 502.423C429.762 501.665 430.198 500.564 430.113 499.66C430.333 499.978 430.732 500.453 430.885 500.606L432.648 499.386C432.544 499.27 432.074 498.726 431.59 498.027L424.612 487.94ZM432.205 492.717C431.697 491.847 431.749 490.496 432.908 489.694C434.179 488.814 435.343 489.207 436.001 490.09L432.205 492.717ZM437.604 491.965C437.877 492.903 437.712 493.887 436.6 494.656C435.456 495.447 433.952 495.243 433.091 494.1L438.746 490.188C438.74 490.145 438.596 489.869 438.387 489.567C436.695 487.121 434.209 486.515 431.826 488.164C429.872 489.515 429.182 492.388 430.875 494.835C432.688 497.456 435.602 497.695 437.699 496.245C439.557 494.959 440.022 493.017 439.501 491.381L437.604 491.965ZM441.233 481.938C441.143 481.977 440.93 482.077 440.708 482.231C439.691 482.934 439.174 484.02 439.391 485.115L438.534 483.876L436.739 485.118L442.09 492.854L443.933 491.579L441.384 487.894C440.384 486.448 440.463 485.172 441.893 484.183C442.084 484.051 442.301 483.924 442.53 483.813L441.233 481.938Z" fill="white"/>
<path d="M243.357 532.19L245.517 530.695L239.766 527.815C241.075 526.346 241.198 524.452 240.088 522.848C238.769 520.942 236.375 520.367 234.199 521.872L229.878 524.861L237.67 536.124L239.592 534.794L236.515 530.346L237.913 529.379L243.357 532.19ZM235.35 528.662L232.965 525.215L235.014 523.798C236.19 522.984 237.425 523.14 238.15 524.188C238.864 525.221 238.575 526.432 237.399 527.245L235.35 528.662ZM244.563 528.255C245.409 529.478 247.179 529.898 248.799 528.777C250.054 527.909 250.377 526.746 250.336 525.905C250.764 526.525 251.048 526.799 251.096 526.835L252.812 525.649C252.741 525.58 252.343 525.174 251.86 524.475L249.2 520.631C248.134 519.09 246.295 518.366 243.912 520.015C242.006 521.333 241.622 523.36 242.403 524.793L244.35 524.01C243.891 523.176 244.003 522.183 244.972 521.513C245.988 520.81 246.796 521.026 247.246 521.677C247.433 521.947 247.46 522.258 247.059 522.629L245.282 524.304C244.096 525.407 243.606 526.873 244.563 528.255ZM248.149 527.09C247.418 527.595 246.691 527.393 246.328 526.869C245.889 526.234 246.13 525.597 246.636 525.106L248.444 523.409L248.686 523.758C249.73 525.267 249.181 526.375 248.149 527.09ZM252.681 519.985C251.659 518.507 251.9 516.955 253.108 516.119C254.315 515.284 255.778 515.634 256.8 517.111C257.822 518.589 257.673 520.172 256.466 521.007C255.211 521.875 253.703 521.462 252.681 519.985ZM253.327 508.287L251.532 509.529L254.763 514.199C254.184 513.872 253.072 513.725 251.722 514.659C249.545 516.165 249.3 519.035 250.839 521.259C252.454 523.594 255.156 524.309 257.38 522.77C258.476 522.012 258.913 520.912 258.827 520.007C259.047 520.325 259.447 520.801 259.599 520.953L261.362 519.733C261.259 519.617 260.789 519.074 260.305 518.375L253.327 508.287ZM264.723 517.409L259.371 509.672L257.545 510.936L262.896 518.672L264.723 517.409ZM255.379 508.417C255.841 509.085 256.744 509.235 257.395 508.785C258.062 508.323 258.24 507.425 257.778 506.758C257.317 506.091 256.403 505.924 255.736 506.386C255.084 506.837 254.918 507.75 255.379 508.417ZM268.728 512.548C267.6 513.328 265.974 513.185 264.864 511.58C263.754 509.976 264.215 508.435 265.343 507.655C266.487 506.864 268.075 506.987 269.185 508.591C270.306 510.211 269.871 511.757 268.728 512.548ZM264.189 505.987C261.886 507.581 261.384 510.488 263.021 512.855C264.67 515.238 267.567 515.793 269.871 514.2C272.19 512.596 272.692 509.688 271.043 507.305C269.406 504.938 266.508 504.383 264.189 505.987Z" fill="white"/>
<path d="M194.309 535.748C185.957 541.525 183.868 552.992 189.646 561.343C195.423 569.694 206.89 571.783 215.241 566.006C223.592 560.229 225.681 548.762 219.904 540.411C214.127 532.06 202.66 529.971 194.309 535.748ZM207.391 554.659C205.303 556.103 202.437 555.581 200.993 553.493C199.548 551.406 200.07 548.539 202.158 547.095C204.246 545.65 207.113 546.172 208.557 548.26C210.001 550.348 209.479 553.215 207.391 554.659Z" fill="#7358E7"/>
<rect x="75.2637" y="720.162" width="49.8673" height="31.7337" rx="15.8669" transform="rotate(-34.675 75.2637 720.162)" fill="#7358E7"/>
<circle cx="112.835" cy="713.464" r="10.2001" transform="rotate(-34.675 112.835 713.464)" fill="white"/>
<path opacity="0.3" d="M220.144 639.784L392.745 520.66" stroke="white" stroke-width="2.80386"/>
<path d="M220.276 639.976L318.993 571.684" stroke="#7358E7" stroke-width="2.80386"/>
<circle cx="318.431" cy="571.234" r="11.0378" transform="rotate(-34.675 318.431 571.234)" fill="#2A5C74"/>
<path d="M327.509 564.955C330.977 569.968 329.724 576.844 324.711 580.312C319.698 583.78 312.822 582.527 309.354 577.514C305.886 572.501 307.138 565.625 312.152 562.157C317.165 558.689 324.041 559.941 327.509 564.955ZM315.452 573.296C316.59 574.941 318.847 575.353 320.493 574.214C322.138 573.076 322.549 570.819 321.411 569.173C320.273 567.527 318.016 567.116 316.37 568.255C314.724 569.393 314.313 571.65 315.452 573.296Z" fill="#7358E7"/>
<rect x="112.464" y="772.061" width="206.263" height="69.61" rx="12.0761" transform="rotate(-34.675 112.464 772.061)" fill="white" fill-opacity="0.2"/>
<g filter="url(#filter4_d_590_1590)">
<rect x="217.929" y="727.289" width="70.8774" height="23.2478" rx="11.6239" transform="rotate(-34.675 217.929 727.289)" fill="#F1F5F9" shape-rendering="crispEdges"/>
<path d="M243.773 727.969C242.852 728.606 241.879 728.831 240.854 728.644C239.825 728.451 239 727.906 238.379 727.009C237.758 726.112 237.541 725.15 237.728 724.125C237.911 723.094 238.462 722.26 239.383 721.623C239.937 721.24 240.537 721.019 241.185 720.959C241.838 720.894 242.451 720.996 243.023 721.263L242.5 722.375C242.127 722.184 241.723 722.111 241.288 722.154C240.854 722.187 240.445 722.336 240.06 722.602C239.408 723.054 239.02 723.627 238.899 724.323C238.783 725.015 238.945 725.679 239.384 726.314C239.823 726.949 240.387 727.334 241.075 727.47C241.769 727.601 242.443 727.441 243.095 726.99C243.48 726.724 243.769 726.394 243.963 726.002C244.152 725.604 244.221 725.199 244.169 724.787L245.388 724.68C245.442 725.306 245.325 725.917 245.039 726.511C244.754 727.096 244.332 727.582 243.773 727.969ZM245.901 719.699C246.402 719.352 246.918 719.232 247.449 719.339C247.979 719.446 248.438 719.779 248.825 720.338L250.681 723.022L249.737 723.675L247.947 721.087C247.722 720.761 247.461 720.571 247.165 720.517C246.869 720.463 246.57 720.541 246.267 720.751C245.935 720.981 245.739 721.271 245.681 721.622C245.618 721.967 245.734 722.352 246.028 722.777L247.648 725.12L246.704 725.773L242.472 719.655L243.416 719.002L245.012 721.309C244.987 720.663 245.283 720.126 245.901 719.699ZM248.554 716.804C248.518 717.001 248.419 717.156 248.256 717.269C248.093 717.382 247.909 717.422 247.706 717.39C247.505 717.348 247.348 717.246 247.235 717.083C247.123 716.92 247.084 716.74 247.12 716.542C247.152 716.339 247.252 716.179 247.421 716.063C247.59 715.946 247.775 715.908 247.977 715.95C248.174 715.986 248.329 716.085 248.442 716.248C248.554 716.412 248.592 716.597 248.554 716.804ZM251.26 722.621L248.237 718.251L249.181 717.598L252.204 721.968L251.26 722.621ZM252.235 715.317C252.835 714.902 253.503 714.772 254.239 714.926C254.97 715.075 255.558 715.469 256.001 716.11C256.449 716.757 256.613 717.449 256.494 718.186C256.375 718.923 256.015 719.499 255.415 719.914C254.751 720.374 254.072 720.482 253.378 720.238L255.016 722.607L254.072 723.26L249.84 717.142L250.784 716.489L251.219 717.118C251.232 716.377 251.571 715.777 252.235 715.317ZM253.384 719.407C253.828 719.488 254.248 719.391 254.644 719.117C255.04 718.843 255.279 718.484 255.359 718.04C255.436 717.591 255.336 717.165 255.057 716.763C254.779 716.361 254.418 716.12 253.975 716.039C253.527 715.952 253.105 716.046 252.709 716.32C252.313 716.594 252.076 716.956 252 717.405C251.919 717.849 252.017 718.272 252.296 718.674C252.574 719.076 252.937 719.32 253.384 719.407Z" fill="#334155"/>
<g clip-path="url(#clip3_590_1590)">
<path d="M267.612 703.299L266.048 711.887" stroke="#334155" stroke-width="1.02876" stroke-linecap="round" stroke-linejoin="round"/>
<path d="M262.536 706.811L271.124 708.375" stroke="#334155" stroke-width="1.02876" stroke-linecap="round" stroke-linejoin="round"/>
</g>
</g>
<rect x="112.464" y="772.061" width="206.263" height="69.61" rx="12.0761" transform="rotate(-34.675 112.464 772.061)" stroke="url(#paint0_linear_590_1590)" stroke-width="0.756098"/>
<rect x="323.463" y="642.412" width="36.5628" height="36.5628" rx="18.2814" transform="rotate(-34.675 323.463 642.412)" fill="#7358E7"/>
<g clip-path="url(#clip4_590_1590)">
<path d="M348.02 638.126C346.445 639.216 345.894 640.868 345.679 642.393C344.225 642.128 342.436 641.99 340.861 643.079C338.355 644.813 338.002 648.127 339.785 650.704C340.676 651.993 341.97 652.792 343.445 652.935L354.098 654.563L356.332 644.021C356.597 642.567 356.427 641.097 355.535 639.808C353.752 637.231 350.526 636.393 348.02 638.126Z" fill="white"/>
</g>
<rect x="395.413" y="592.638" width="36.5628" height="36.5628" rx="18.2814" transform="rotate(-34.675 395.413 592.638)" fill="#7358E7"/>
<path d="M419.724 596.093C420.869 595.3 422.075 594.974 423.341 595.115C424.599 595.244 425.644 595.91 426.476 597.113C427.308 598.315 427.555 599.542 427.217 600.792C426.879 602.042 426.12 603.075 424.941 603.891C423.99 604.549 422.997 604.913 421.963 604.985C420.921 605.046 419.956 604.765 419.068 604.143L420.092 601.986C421.165 602.853 422.338 602.846 423.609 601.967C424.285 601.499 424.705 600.955 424.868 600.334C425.034 599.693 424.912 599.075 424.5 598.48C424.088 597.884 423.562 597.553 422.924 597.487C422.285 597.42 421.634 597.617 420.969 598.077L417.464 600.502L413.459 593.72L420.16 589.084L421.443 590.94L416.564 594.316L418.212 597.139L419.724 596.093Z" fill="white"/>
<rect x="29.5186" y="652.823" width="31.0439" height="31.0439" rx="8.86967" transform="rotate(-34.675 29.5186 652.823)" fill="#7358E7"/>
<path d="M51.5521 661.289L46.4724 660.363L46.075 662.545L53.3359 663.867L56.0638 648.894L53.8826 648.496L51.5521 661.289Z" fill="white"/>
</g>
<defs>
<filter id="filter0_b_590_1590" x="577" y="46.6523" width="1060.58" height="1165.07" filterUnits="userSpaceOnUse" color-interpolation-filters="sRGB">
<feFlood flood-opacity="0" result="BackgroundImageFix"/>
<feGaussianBlur in="BackgroundImageFix" stdDeviation="100"/>
<feComposite in2="SourceAlpha" operator="in" result="effect1_backgroundBlur_590_1590"/>
<feBlend mode="normal" in="SourceGraphic" in2="effect1_backgroundBlur_590_1590" result="shape"/>
</filter>
<filter id="filter1_b_590_1590" x="958.224" y="591.288" width="306.21" height="232.133" filterUnits="userSpaceOnUse" color-interpolation-filters="sRGB">
<feFlood flood-opacity="0" result="BackgroundImageFix"/>
<feGaussianBlur in="BackgroundImageFix" stdDeviation="10"/>
<feComposite in2="SourceAlpha" operator="in" result="effect1_backgroundBlur_590_1590"/>
<feBlend mode="normal" in="SourceGraphic" in2="effect1_backgroundBlur_590_1590" result="shape"/>
</filter>
<filter id="filter2_b_590_1590" x="862.242" y="427.314" width="306.21" height="232.133" filterUnits="userSpaceOnUse" color-interpolation-filters="sRGB">
<feFlood flood-opacity="0" result="BackgroundImageFix"/>
<feGaussianBlur in="BackgroundImageFix" stdDeviation="10"/>
<feComposite in2="SourceAlpha" operator="in" result="effect1_backgroundBlur_590_1590"/>
<feBlend mode="normal" in="SourceGraphic" in2="effect1_backgroundBlur_590_1590" result="shape"/>
</filter>
<filter id="filter3_b_590_1590" x="-106.595" y="125.384" width="867.877" height="795.485" filterUnits="userSpaceOnUse" color-interpolation-filters="sRGB">
<feFlood flood-opacity="0" result="BackgroundImageFix"/>
<feGaussianBlur in="BackgroundImageFix" stdDeviation="13.7973"/>
<feComposite in2="SourceAlpha" operator="in" result="effect1_backgroundBlur_590_1590"/>
<feBlend mode="normal" in="SourceGraphic" in2="effect1_backgroundBlur_590_1590" result="shape"/>
</filter>
<filter id="filter4_d_590_1590" x="193.02" y="670.36" width="121.332" height="109.259" filterUnits="userSpaceOnUse" color-interpolation-filters="sRGB">
<feFlood flood-opacity="0" result="BackgroundImageFix"/>
<feColorMatrix in="SourceAlpha" type="matrix" values="0 0 0 0 0 0 0 0 0 0 0 0 0 0 0 0 0 0 127 0" result="hardAlpha"/>
<feOffset dy="8.3028"/>
<feGaussianBlur stdDeviation="12.4542"/>
<feComposite in2="hardAlpha" operator="out"/>
<feColorMatrix type="matrix" values="0 0 0 0 0.945098 0 0 0 0 0.960784 0 0 0 0 0.976471 0 0 0 0.1 0"/>
<feBlend mode="normal" in2="BackgroundImageFix" result="effect1_dropShadow_590_1590"/>
<feBlend mode="normal" in="SourceGraphic" in2="effect1_dropShadow_590_1590" result="shape"/>
</filter>
<linearGradient id="paint0_linear_590_1590" x1="115.314" y1="771.965" x2="188.271" y2="909.011" gradientUnits="userSpaceOnUse">
<stop stop-color="#475569"/>
<stop offset="1" stop-color="#475569" stop-opacity="0"/>
</linearGradient>
<clipPath id="clip0_590_1590">
<rect x="777" y="436.088" width="375" height="667" rx="20" transform="rotate(-30.3421 777 436.088)" fill="white"/>
</clipPath>
<clipPath id="clip1_590_1590">
<rect x="1223.56" y="320.413" width="375" height="350" rx="20" transform="rotate(-30.3421 1223.56 320.413)" fill="white"/>
</clipPath>
<clipPath id="clip2_590_1590">
<rect x="1424.33" y="679.903" width="375" height="350" rx="20" transform="rotate(-30.3421 1424.33 679.903)" fill="white"/>
</clipPath>
<clipPath id="clip3_590_1590">
<rect width="12.3451" height="12.3451" fill="white" transform="translate(258.241 706.029) rotate(-34.675)"/>
</clipPath>
<clipPath id="clip4_590_1590">
<rect width="20.893" height="20.893" fill="white" transform="translate(334.363 644.398) rotate(-34.675)"/>
</clipPath>
</defs>
</svg>
