<svg width="381" height="318" viewBox="0 0 381 318" fill="none" xmlns="http://www.w3.org/2000/svg">
<path d="M297.525 17.2802C297.589 17.3985 297.889 17.9081 298.198 18.4086C298.508 18.9091 299.172 19.992 299.673 20.8201C300.173 21.6482 300.746 22.5855 300.947 22.9131C301.147 23.2407 301.966 24.5693 302.758 25.8706C305.506 30.3933 306.47 31.9858 308.072 34.6066C308.955 36.0535 310.392 38.4104 311.257 39.8391C312.121 41.2678 313.086 42.8512 313.405 43.3517L313.969 44.2799L310.32 46.5276C307.326 48.3749 261.562 76.5394 212.276 106.879L202.612 112.821L200.983 111.165C200.091 110.246 190.136 99.981 178.852 88.3421C167.577 76.7032 158.122 66.948 157.831 66.6568L157.312 66.1199L145.719 73.1087C139.34 76.9489 132.451 81.0985 130.394 82.3361C128.347 83.5737 123.242 86.6495 119.065 89.1611C114.888 91.6818 109.892 94.6939 107.963 95.8496C103.786 98.3703 91.8924 105.532 81.0725 112.048C76.7682 114.641 71.6722 117.717 69.743 118.873C67.8138 120.037 62.8179 123.04 58.641 125.561C54.4641 128.082 49.4682 131.094 47.539 132.25C40.5957 136.436 28.3471 143.807 22.0135 147.629C18.4645 149.767 14.0146 152.443 12.14 153.571C10.2654 154.699 8.67287 155.664 8.61827 155.719C8.49087 155.828 8.35437 155.6 15.871 168.058C17.9367 171.489 20.1389 175.147 20.7668 176.184C21.5949 177.559 21.9407 178.068 22.0408 178.023C22.1682 177.977 24.9801 176.294 33.161 171.361C35.2358 170.115 40.441 166.975 44.718 164.4C48.995 161.825 55.82 157.711 59.8695 155.273C63.9281 152.825 68.8148 149.885 70.744 148.721C75.6671 145.754 88.5709 137.983 96.497 133.205C100.173 130.985 105.278 127.918 107.826 126.38C110.384 124.842 115.871 121.539 120.02 119.036C124.179 116.534 130.868 112.503 134.899 110.073C138.93 107.643 144.654 104.203 147.612 102.411L153.008 99.162L154.409 100.6C155.174 101.392 165.393 111.929 177.114 124.014C188.835 136.099 198.453 145.982 198.49 145.972C198.526 145.963 204.368 142.369 211.475 138.001C218.583 133.624 239.121 120.984 257.112 109.909C275.103 98.8435 290.081 89.6252 290.4 89.425C291.401 88.7971 292.038 88.4058 295.923 86.0125C298.026 84.7294 300.073 83.4645 300.473 83.2188C300.874 82.9731 301.383 82.6546 301.611 82.5181C301.838 82.3816 307.753 78.7416 314.751 74.4282C324.807 68.2402 327.51 66.6113 327.601 66.7023C327.655 66.766 327.992 67.2938 328.338 67.8671C329.111 69.132 330.649 71.6618 333.024 75.5566C335.272 79.2512 340.231 87.3866 343.371 92.5463C344.699 94.7394 345.819 96.5321 345.846 96.5321C345.882 96.5321 346.192 95.7677 346.547 94.8213C347.156 93.2015 348.367 89.9983 355.119 72.1896C356.73 67.9308 358.841 62.3616 359.805 59.8136C363.172 50.9138 370.698 31.0394 371.608 28.6643C372.109 27.3448 372.5 26.2528 372.482 26.2437C372.464 26.2255 369.815 25.8979 366.585 25.5157C363.354 25.1244 360.597 24.7877 360.442 24.7695C360.297 24.7513 359.314 24.633 358.258 24.5056C357.212 24.3782 355.838 24.2144 355.21 24.1416C354.582 24.0597 353.581 23.9414 352.98 23.8595C352.38 23.7867 351.725 23.7048 351.524 23.6866C351.324 23.6593 349.459 23.4318 347.384 23.1861C343.589 22.722 342.852 22.631 338.102 22.0577C336.673 21.8848 333.789 21.5299 331.686 21.2751C329.584 21.0203 327.391 20.7564 326.818 20.6836C326.245 20.6108 325.571 20.5289 325.316 20.5016C325.071 20.4743 324.716 20.4288 324.543 20.4106C324.37 20.3833 320.011 19.8555 314.851 19.2276C309.701 18.6088 305.315 18.0719 305.114 18.0446C304.914 18.0264 304.095 17.9263 303.294 17.8262C302.494 17.7261 301.283 17.5805 300.61 17.4986C299.937 17.4258 299.263 17.3439 299.108 17.3166C298.963 17.2984 298.59 17.262 298.289 17.2256C297.989 17.1892 297.671 17.1437 297.58 17.1164C297.425 17.08 297.425 17.0982 297.525 17.2802Z" fill="#0083FF"/>
<path d="M309.637 92.8193L296.606 100.846L296.624 197.36L296.651 293.866L309.692 293.893L322.723 293.911V189.352C322.723 131.849 322.714 84.7931 322.705 84.7931C322.687 84.7931 316.808 88.4058 309.637 92.8193Z" fill="#0083FF"/>
<path d="M265.029 120.274L252.062 128.264L252.034 211.092L252.016 293.911H265.029H278.042V203.093C278.042 153.143 278.033 112.275 278.024 112.284C278.006 112.284 272.164 115.879 265.029 120.274Z" fill="#0083FF"/>
<path d="M139.904 122.221C137.629 123.596 133.161 126.28 129.985 128.2C126.809 130.111 122.878 132.477 121.249 133.46C119.62 134.434 118.219 135.298 118.128 135.371C117.982 135.498 117.973 139.366 117.991 214.687L118.019 293.866L131.059 293.893L144.09 293.911V206.824C144.09 158.931 144.081 119.737 144.063 119.737C144.054 119.737 142.179 120.856 139.904 122.221Z" fill="#0083FF"/>
<path d="M162.654 210.855V293.911H175.713H188.771V224.305V154.699L176.704 142.241C170.071 135.398 164.192 129.347 163.646 128.792L162.654 127.791V210.855Z" fill="#0083FF"/>
<path d="M220.33 147.792L207.335 155.791V224.851V293.911L220.375 293.893L233.406 293.866L233.425 216.88C233.443 174.546 233.425 139.875 233.379 139.848C233.343 139.812 227.473 143.388 220.33 147.792Z" fill="#0083FF"/>
<path d="M94.2676 149.703C87.8885 153.553 77.6146 159.741 75.2304 161.179L73.3831 162.28V228.091V293.911H86.3961H99.4091V220.292C99.4091 179.797 99.3818 146.673 99.3454 146.682C99.2999 146.682 97.0249 148.047 94.2676 149.703Z" fill="#0083FF"/>
<path d="M51.907 175.22C49.0587 176.949 43.4349 180.334 34.0528 185.985L28.702 189.207V241.559V293.911H41.7605H54.819V233.715C54.819 200.609 54.7917 173.518 54.7553 173.527C54.7098 173.536 53.4358 174.292 51.907 175.22Z" fill="#0083FF"/>
</svg>
