<svg width="65" height="65" viewBox="0 0 65 65" fill="none" xmlns="http://www.w3.org/2000/svg">
<g clip-path="url(#clip0_568_2472)">
<path d="M17.0322 46.4594H59.3862V34.7394L51.3402 30.1254L49.9522 29.5254L17.0322 29.7514V46.4594Z" fill="white"/>
<path d="M44.7359 44.9035C45.1299 43.5535 44.9799 42.3155 44.3239 41.3955C43.7239 40.5515 42.7099 40.0635 41.4919 40.0075L18.4019 39.7075C18.2519 39.7075 18.1219 39.6315 18.0459 39.5195C17.9699 39.4075 17.9519 39.2595 17.9899 39.1075C18.0659 38.8815 18.2899 38.7135 18.5339 38.6955L41.8299 38.3955C44.5899 38.2635 47.5899 36.0315 48.6379 33.2955L49.9699 29.8255C50.0286 29.683 50.0425 29.5261 50.0099 29.3755C48.5099 22.5855 42.4499 17.5215 35.2099 17.5215C28.5299 17.5215 22.8699 21.8355 20.8419 27.8215C19.5279 26.8455 17.8419 26.3215 16.0579 26.4895C12.8499 26.8095 10.2579 29.3775 9.96193 32.5855C9.8842 33.3833 9.94099 34.1885 10.1299 34.9675C7.60623 35.0358 5.20909 36.0874 3.44969 37.898C1.69029 39.7086 0.707872 42.1349 0.711927 44.6595C0.711927 45.1275 0.751927 45.5995 0.805927 46.0655C0.845927 46.2915 1.03193 46.4595 1.25593 46.4595H43.8719C43.9945 46.4571 44.1132 46.416 44.2109 46.342C44.3087 46.2679 44.3804 46.1648 44.4159 46.0475L44.7359 44.9035Z" fill="#F38020"/>
<path d="M52.0879 30.0654L51.4479 30.0854C51.2979 30.0854 51.1679 30.1974 51.1079 30.3454L50.2079 33.4774C49.8139 34.8274 49.9639 36.0654 50.6199 36.9854C51.2199 37.8294 52.2339 38.3174 53.4519 38.3734L58.3659 38.6734C58.5159 38.6734 58.6459 38.7494 58.7219 38.8614C58.7979 38.9734 58.8159 39.1414 58.7779 39.2734C58.7019 39.4994 58.4779 39.6674 58.2339 39.6854L53.1139 39.9854C50.3379 40.1174 47.3539 42.3494 46.3059 45.0854L45.9299 46.0414C45.8539 46.2294 45.9859 46.4174 46.1899 46.4174H63.7839C63.8858 46.4189 63.9852 46.3864 64.0667 46.3253C64.1481 46.2641 64.2069 46.1776 64.2339 46.0794C64.5457 44.9701 64.7065 43.8238 64.7119 42.6714C64.7024 39.3281 63.3687 36.1247 61.0027 33.7625C58.6368 31.4003 55.4313 30.0696 52.0879 30.0654Z" fill="#FAAE40"/>
</g>
<defs>
<clipPath id="clip0_568_2472">
<rect width="64" height="64" fill="white" transform="translate(0.711914 0.459473)"/>
</clipPath>
</defs>
</svg>
