<svg width="86" height="86" viewBox="0 0 86 86" fill="none" xmlns="http://www.w3.org/2000/svg">
<g clip-path="url(#clip0_549_1831)">
<path d="M77.0005 72.0346C77.0284 77.203 72.8603 81.4114 67.695 81.4393C67.311 81.4424 66.9239 81.4207 66.543 81.3742C61.7494 80.6651 58.2377 76.4939 58.3554 71.6507V15.9662C58.2408 11.1168 61.7618 6.94552 66.5585 6.24258C71.6897 5.64182 76.3378 9.31448 76.9386 14.4457C76.9819 14.8235 77.0036 15.2013 77.0005 15.5822V72.0346Z" fill="#F9AB00"/>
<path d="M18.3241 62.8067C23.4739 62.8067 27.6482 66.981 27.6482 72.1308C27.6482 77.2806 23.4739 81.4549 18.3241 81.4549C13.1743 81.4549 9 77.2806 9 72.1308C9 66.981 13.1743 62.8067 18.3241 62.8067ZM42.856 34.5495C37.6815 34.8344 33.6682 39.1728 33.7889 44.3536V69.3964C33.7889 76.1936 36.7803 80.3184 41.1621 81.1979C46.219 82.2229 51.1458 78.9559 52.1708 73.899C52.2978 73.2797 52.3597 72.651 52.3566 72.0193V43.92C52.3659 38.7517 48.1854 34.5557 43.017 34.5464C42.9644 34.5464 42.9086 34.5464 42.856 34.5495Z" fill="#E37400"/>
</g>
<defs>
<clipPath id="clip0_549_1831">
<rect width="68" height="75.2772" fill="white" transform="translate(9 6.17773)"/>
</clipPath>
</defs>
</svg>
