<svg width="86" height="86" viewBox="0 0 86 86" fill="none" xmlns="http://www.w3.org/2000/svg">
<g clip-path="url(#clip0_549_1789)">
<path d="M60.3009 33.1332V25.2648C61.3407 24.7789 62.221 24.0076 62.8395 23.0407C63.458 22.0738 63.7892 20.9512 63.7945 19.8035V19.6229C63.7945 16.2765 61.0817 13.5636 57.7355 13.5636H57.5547C54.2083 13.5636 51.4954 16.2765 51.4954 19.6229V19.8035C51.5007 20.9512 51.8319 22.0738 52.4504 23.0407C53.0689 24.0076 53.9493 24.7789 54.9891 25.2648V33.1332C52.0006 33.5909 49.1861 34.83 46.8306 36.7253L25.2511 19.9171C25.405 19.3616 25.4852 18.7904 25.4943 18.217C25.4969 16.8666 25.099 15.5458 24.3509 14.4216C23.6027 13.2974 22.538 12.4203 21.2913 11.9013C20.0446 11.3823 18.672 11.2447 17.3472 11.5059C16.0223 11.7671 14.8046 12.4153 13.8482 13.3686C12.8917 14.322 12.2395 15.5375 11.9741 16.8616C11.7086 18.1856 11.8417 19.5586 12.3567 20.807C12.8716 22.0554 13.7453 23.1229 14.867 23.8747C15.9888 24.6265 17.3084 25.0287 18.6588 25.0304C19.8401 25.0249 20.9993 24.7095 22.0207 24.1158L43.2703 40.6512C39.3635 46.5528 39.4681 54.2444 43.5335 60.0381L37.0704 66.5029C36.5478 66.336 36.0038 66.2472 35.4552 66.2397C32.36 66.2424 29.8525 68.7526 29.8533 71.8478C29.8541 74.9428 32.3632 77.4516 35.4582 77.4524C38.5534 77.4532 41.0636 74.9457 41.0662 71.8505C41.0589 71.3021 40.9701 70.7578 40.8028 70.2355L47.1964 63.8394C52.9093 68.2374 60.7555 68.6163 66.8657 64.7893C72.9757 60.9621 76.0592 53.7369 74.5952 46.6776C73.1311 39.6181 67.4289 34.2154 60.3009 33.1332ZM57.6507 59.0117C56.4695 59.0434 55.2939 58.8382 54.1933 58.4082C53.0927 57.9781 52.0895 57.3319 51.2428 56.5076C50.3961 55.6834 49.7231 54.6979 49.2636 53.6093C48.8041 52.5207 48.5673 51.351 48.5673 50.1694C48.5673 48.9878 48.8041 47.8181 49.2636 46.7295C49.7231 45.6409 50.3961 44.6554 51.2428 43.8312C52.0895 43.007 53.0927 42.3607 54.1933 41.9307C55.2939 41.5006 56.4695 41.2954 57.6507 41.3272C62.4107 41.4938 66.1841 45.3998 66.1868 50.163C66.1889 54.9257 62.4195 58.8356 57.6595 59.0071" fill="#FF7A59"/>
</g>
<defs>
<clipPath id="clip0_549_1789">
<rect width="67" height="67" fill="white" transform="translate(9.98926 10.4531)"/>
</clipPath>
</defs>
</svg>
