<svg width="32" height="32" viewBox="0 0 32 32" fill="none" xmlns="http://www.w3.org/2000/svg">
<g clip-path="url(#clip0_568_2476)">
<mask id="mask0_568_2476" style="mask-type:luminance" maskUnits="userSpaceOnUse" x="0" y="0" width="32" height="32">
<path d="M32 0H0V32H32V0Z" fill="white"/>
</mask>
<g mask="url(#mask0_568_2476)">
<path d="M23.9034 0H8.09679C3.62504 0 0 3.62504 0 8.09679V23.9034C0 28.375 3.62504 32 8.09679 32H23.9034C28.375 32 32 28.375 32 23.9034V8.09679C32 3.62504 28.375 0 23.9034 0Z" fill="#00DDB3"/>
<path d="M23.9034 0H8.09679C3.62504 0 0 3.62504 0 8.09679V23.9034C0 28.375 3.62504 32 8.09679 32H23.9034C28.375 32 32 28.375 32 23.9034V8.09679C32 3.62504 28.375 0 23.9034 0Z" fill="#00DDB3"/>
<path d="M24.3203 7.16748C18.812 7.16748 16.7709 11.1004 15.1296 14.2599L14.0572 16.2814C12.3194 19.6322 11.0207 21.669 7.67453 21.669C7.46675 21.6689 7.26099 21.7097 7.06902 21.7892C6.87705 21.8687 6.70264 21.9853 6.55577 22.1323C6.40893 22.2792 6.29246 22.4536 6.21302 22.6455C6.13357 22.8374 6.09271 23.0431 6.09277 23.2508C6.09283 23.4585 6.1338 23.6641 6.21335 23.856C6.2929 24.0478 6.40946 24.2222 6.55639 24.369C6.85301 24.6655 7.25509 24.8324 7.67453 24.8331C13.185 24.8331 15.2262 20.8999 16.8675 17.7405L17.9376 15.7191C19.6776 12.3681 20.9763 10.3315 24.3203 10.3315C24.5282 10.3318 24.7342 10.2912 24.9265 10.2118C25.1187 10.1324 25.2934 10.0158 25.4405 9.86887C25.5876 9.72194 25.7043 9.54745 25.7839 9.35538C25.8636 9.16331 25.9046 8.95742 25.9045 8.74949C25.9037 8.3298 25.7365 7.92756 25.4395 7.63101C25.1425 7.33447 24.74 7.16764 24.3203 7.16748Z" fill="white"/>
</g>
</g>
<defs>
<clipPath id="clip0_568_2476">
<rect width="32" height="32" fill="white"/>
</clipPath>
</defs>
</svg>
