<svg width="512" height="512" viewBox="0 0 512 512" fill="none" xmlns="http://www.w3.org/2000/svg">
<g clip-path="url(#clip0_824_10382)">
<path d="M0 0H512V512H0" fill="#FFDD22"/>
<path d="M418 306L412 289C412 289 437 251 375 238C375 238 379 191 357 169C405 122 394 51 285 97C229 -10 13.0002 241 103 281C94.0002 293 94.0002 353 156 359C198 449 300 455 359 428C418 401 452 315 418 306ZM155 346C104 341 99.0002 271 143 264C187 257 198 350 155 346ZM140 251C126 251 109 270 109 270C41.0002 237 232 18 273 103C273 103 173 151 140 251ZM340 336C340 332 319 342 281 329C284 308 329 347 404 296L410 317C438 312 410 407 320 406C247 405 224 330 264 289C272 281 235 265 242 230C245 215 258 193 291 199C324 205 331 175 353 186C375 197 362 239 365 245C368 251 400 252 406 269C412 286 365 323 292 313C275 311 265 333 276 347C298 379 388 358 403 327C365 356 287 367 281 336C303 346 340 340 340 336ZM209 178C231 151 260 135 260 135L254 150C254 150 275 134 298 134L290 142C316 143 327 153 327 153C327 153 266 135 209 178ZM344 217C357 216 353 246 353 246H345C345 246 331 218 344 217ZM285 250C276 251 266 256 267 252C271 236 308 240 307 254C306 268 298 248 285 250ZM306 262C307 264 299 262 293 263C287 264 281 267 281 265C281 263 304 254 306 262ZM326 265C329 259 341 265 338 271C335 277 323 271 326 265ZM351 267C345 267 345 254 351 254C357 254 357 268 351 268V267ZM171 320C174 323 165 329 158 324C151 319 166 295 148 289C130 283 135 306 130 303C125 300 137 268 158 281C179 294 152 314 164 320C176 326 169 318 171 320Z" fill="#222222"/>
</g>
<defs>
<clipPath id="clip0_824_10382">
<rect width="512" height="512" rx="256" fill="white"/>
</clipPath>
</defs>
</svg>
