<svg width="64" height="64" viewBox="0 0 64 64" fill="none" xmlns="http://www.w3.org/2000/svg">
<g clip-path="url(#clip0_568_2468)">
<path d="M53.1368 12.484C53.0898 12.201 52.8588 11.984 52.5728 11.957C52.3478 11.92 47.4028 11.581 47.4028 11.581L43.6328 7.811C43.2928 7.435 42.5408 7.545 42.2568 7.623C42.2198 7.623 41.5048 7.848 40.3348 8.228C39.1978 4.938 37.1848 1.922 33.6388 1.922H33.3358C32.3198 0.605 31.0758 0 30.0258 0C21.7698 0.037 17.8358 10.333 16.5918 15.594L10.8218 17.364C9.05184 17.928 8.98684 17.969 8.74884 19.657L3.88184 57.175L40.3498 64L60.1128 59.74C60.1128 59.703 53.1728 12.842 53.1368 12.484ZM38.3128 8.86C37.3958 9.163 36.3498 9.465 35.2228 9.805V9.125C35.2562 7.42816 35.0019 5.73792 34.4708 4.126C36.3188 4.41 37.5608 6.483 38.3138 8.859L38.3128 8.86ZM32.2448 4.562C32.8478 6.34 33.1278 8.212 33.0708 10.089V10.429L26.6958 12.392C27.9438 7.732 30.2448 5.43 32.2448 4.562ZM29.7948 2.269C30.172 2.27702 30.5386 2.39483 30.8498 2.608C28.1898 3.846 25.3778 6.974 24.1718 13.235L19.1268 14.781C20.5498 10.03 23.8698 2.26 29.7918 2.26L29.7948 2.269Z" fill="#95BF47"/>
<path d="M52.5725 11.9569C52.3475 11.9199 47.4025 11.5809 47.4025 11.5809L43.6325 7.81094C43.4925 7.66894 43.3025 7.58794 43.1055 7.58594L40.3535 63.9999L60.1165 59.7399L53.1365 12.5219C53.1139 12.3805 53.0472 12.2498 52.9459 12.1486C52.8446 12.0473 52.7139 11.9806 52.5725 11.9579V11.9569Z" fill="#5E8E3E"/>
<path d="M33.6398 22.89L31.1858 30.132C29.7028 29.414 28.0818 29.028 26.4338 28.999C22.5858 28.999 22.3978 31.411 22.3978 32.017C22.3978 35.315 31.0338 36.581 31.0338 44.35C31.0338 50.46 27.1488 54.38 21.9338 54.38C15.6738 54.38 12.4668 50.495 12.4668 50.495L14.1318 44.945C14.1318 44.945 17.4118 47.775 20.2048 47.775C20.5387 47.7877 20.8717 47.7326 21.1836 47.6129C21.4956 47.4932 21.78 47.3115 22.0197 47.0787C22.2594 46.8459 22.4494 46.5669 22.5781 46.2586C22.7069 45.9503 22.7717 45.6191 22.7688 45.285C22.7688 40.945 15.6788 40.758 15.6788 33.667C15.6788 27.705 19.9768 21.897 28.6128 21.897C32.0068 21.947 33.6308 22.887 33.6308 22.887L33.6398 22.89Z" fill="white"/>
</g>
<defs>
<clipPath id="clip0_568_2468">
<rect width="64" height="64" fill="white"/>
</clipPath>
</defs>
</svg>
