<svg width="256" height="256" viewBox="0 0 256 256" fill="none" xmlns="http://www.w3.org/2000/svg">
<g clip-path="url(#clip0_824_10378)">
<path d="M0 128C0 198.692 57.3076 256 128 256C198.692 256 256 198.692 256 128C256 57.3076 198.692 0 128 0C57.3076 0 0 57.3076 0 128Z" fill="#6772E5"/>
<path d="M139.688 111.001C126.761 106.219 119.677 102.501 119.677 96.6569C119.677 91.6976 123.75 88.8647 131.011 88.8647C144.292 88.8647 157.927 94.0006 167.312 98.6039L172.625 65.8444C165.188 62.3022 149.958 56.4585 128.886 56.4585C114.011 56.4585 101.614 60.3539 92.7609 67.6147C83.5516 75.2289 78.7704 86.2085 78.7704 99.4897C78.7704 123.573 93.4688 133.844 117.375 142.521C132.781 148.01 137.917 151.907 137.917 157.927C137.917 163.771 132.958 167.135 123.927 167.135C112.77 167.135 94.3546 161.646 82.3125 154.563L77 187.677C87.2704 193.521 106.395 199.541 126.23 199.541C141.989 199.541 155.094 195.823 163.948 188.74C173.864 180.948 179 169.438 179 154.563C179 129.948 163.948 119.677 139.688 111.001Z" fill="white"/>
</g>
<defs>
<clipPath id="clip0_824_10378">
<rect width="256" height="256" fill="white"/>
</clipPath>
</defs>
</svg>
