<svg width="65" height="65" viewBox="0 0 65 65" fill="none" xmlns="http://www.w3.org/2000/svg">
<path d="M32.1304 0.686035C23.658 0.730163 15.5489 4.13246 9.5813 10.1468C3.61376 16.1612 0.27492 24.2966 0.296984 32.7692C0.319048 41.2417 3.70021 49.3596 9.699 55.3428C15.6978 61.326 23.8245 64.686 32.2971 64.686C40.7696 64.686 48.8964 61.326 54.8952 55.3428C60.894 49.3596 64.2751 41.2417 64.2972 32.7692C64.3193 24.2966 60.9804 16.1612 55.0129 10.1468C49.0453 4.13246 40.9362 0.730163 32.4638 0.686035M32.4638 9.18609C38.6818 9.23019 44.6289 11.7369 49.0024 16.1572C53.3758 20.5774 55.8191 26.5508 55.7971 32.769C55.775 38.9871 53.2894 44.9431 48.8847 49.3322C44.48 53.7213 38.5153 56.1858 32.2971 56.1858C26.0789 56.1858 20.1142 53.7213 15.7095 49.3322C11.3047 44.9431 8.81913 38.9871 8.79708 32.769C8.77503 26.5508 11.2183 20.5774 15.5918 16.1572C19.9653 11.7369 25.9124 9.23019 32.1304 9.18609M24.3304 18.1862C22.5829 18.2082 20.915 18.9206 19.691 20.168C18.467 21.4154 17.7861 23.0964 17.7971 24.844C17.8081 26.5916 18.5101 28.2639 19.7497 29.4958C20.9894 30.7276 22.6661 31.4191 24.4137 31.4191C26.1613 31.4191 27.838 30.7276 29.0777 29.4958C30.3173 28.2639 31.0193 26.5916 31.0303 24.844C31.0413 23.0964 30.3605 21.4154 29.1364 20.168C27.9124 18.9206 26.2445 18.2082 24.497 18.1862H40.0971C38.3496 18.2082 36.6818 18.9206 35.4578 20.168C34.2337 21.4154 33.5529 23.0964 33.5639 24.844C33.5749 26.5916 34.2769 28.2639 35.5165 29.4958C36.7562 30.7276 38.4328 31.4191 40.1805 31.4191C41.9281 31.4191 43.6048 30.7276 44.8444 29.4958C46.0841 28.2639 46.786 26.5916 46.7971 24.844C46.8081 23.0964 46.1272 21.4154 44.9032 20.168C43.6791 18.9206 42.0113 18.2082 40.2638 18.1862M24.3304 33.9363C22.5829 33.9583 20.915 34.6707 19.691 35.9181C18.467 37.1655 17.7861 38.8465 17.7971 40.5941C17.8081 42.3417 18.5101 44.014 19.7497 45.2459C20.9894 46.4777 22.6661 47.1692 24.4137 47.1692C26.1613 47.1692 27.838 46.4777 29.0777 45.2459C30.3173 44.014 31.0193 42.3417 31.0303 40.5941C31.0413 38.8465 30.3605 37.1655 29.1364 35.9181C27.9124 34.6707 26.2445 33.9583 24.497 33.9363H40.0971C38.3496 33.9583 36.6818 34.6707 35.4578 35.9181C34.2337 37.1655 33.5529 38.8465 33.5639 40.5941C33.5749 42.3417 34.2769 44.014 35.5165 45.2459C36.7562 46.4777 38.4328 47.1692 40.1805 47.1692C41.9281 47.1692 43.6048 46.4777 44.8444 45.2459C46.0841 44.014 46.786 42.3417 46.7971 40.5941C46.8081 38.8465 46.1272 37.1655 44.9032 35.9181C43.6791 34.6707 42.0113 33.9583 40.2638 33.9363" fill="#F22F46"/>
</svg>
