<svg width="86" height="86" viewBox="0 0 86 86" fill="none" xmlns="http://www.w3.org/2000/svg">
<g clip-path="url(#clip0_549_1747)">
<path d="M43.276 85.9515C66.7474 85.9515 85.7747 66.9242 85.7747 43.4528C85.7747 19.9814 66.7474 0.954102 43.276 0.954102C19.8047 0.954102 0.777344 19.9814 0.777344 43.4528C0.777344 66.9242 19.8047 85.9515 43.276 85.9515Z" fill="#175CFF"/>
<path d="M55.7599 38.4062L51.9085 50.5449C51.9085 49.6152 49.2523 29.4814 49.2523 29.4814C43.1431 29.4814 39.9026 33.811 38.2027 38.4062L33.5012 50.5714C33.5012 49.6949 32.8372 38.5124 32.8372 38.5124C32.6104 36.0916 31.5038 33.8381 29.7268 32.1786C27.9498 30.5191 25.6259 29.5689 23.1953 29.508L28.1889 60.0008C34.5637 60.0008 38.0167 55.6713 39.7964 51.0761L43.7806 40.717C43.7806 41.142 46.4368 60.0008 46.4368 60.0008C49.0435 59.9975 51.5815 59.1641 53.6828 57.6216C55.7841 56.079 57.3397 53.9074 58.1239 51.4214L67.1549 29.4814C60.7801 29.4814 57.4333 33.811 55.7334 38.4062H55.7599Z" fill="white"/>
</g>
<defs>
<clipPath id="clip0_549_1747">
<rect width="84.9974" height="84.9974" fill="white" transform="translate(0.776367 0.95459)"/>
</clipPath>
</defs>
</svg>
