<svg width="86" height="86" viewBox="0 0 86 86" fill="none" xmlns="http://www.w3.org/2000/svg">
<g clip-path="url(#clip0_549_1821)">
<g clip-path="url(#clip1_549_1821)">
<path d="M29.4465 30.5954H25.853L35.65 58.2892L41.1346 42.6159L36.8823 30.5954H33.0908V27.9565H49.8809V30.5954H45.9491L55.7459 58.2892L59.2675 48.2255C63.8872 35.3319 55.4812 31.3155 55.4812 28.438C55.4812 25.5604 57.814 23.2279 60.6913 23.2279C60.847 23.2279 60.9982 23.2363 61.1463 23.2501C56.2708 18.6476 49.6967 15.8252 42.4628 15.8252C33.0106 15.8252 24.6846 20.6432 19.8037 27.9565H29.4462V30.5954H29.4465Z" fill="#2A83B5"/>
<path d="M15.2393 43.0493C15.2393 53.4721 21.0975 62.5253 29.7 67.1L17.4143 32.3711C16.0147 35.6498 15.2393 39.2589 15.2393 43.0493Z" fill="#2A83B5"/>
<path d="M66.1566 29.6343C66.546 31.9272 66.4281 34.5042 65.8305 37.0913H65.9388L65.5272 38.2676C65.2833 39.1169 64.9761 39.9857 64.6273 40.8394L55.2598 67.0826C63.8442 62.5023 69.6875 53.4588 69.6875 43.0493C69.6875 38.1715 68.4034 33.594 66.1566 29.6343Z" fill="#2A83B5"/>
<path d="M34.0674 68.9519C36.7122 69.8087 39.5333 70.2734 42.4636 70.2734C45.2585 70.2734 47.9548 69.8516 50.493 69.0691L42.5297 46.5586L34.0674 68.9519Z" fill="#2A83B5"/>
<path d="M65.4701 20.0424C59.3248 13.8971 51.1541 10.5127 42.4632 10.5127C33.7724 10.5127 25.6018 13.8971 19.4565 20.0424C13.3111 26.1877 9.92676 34.3583 9.92676 43.0493C9.92676 51.7402 13.3111 59.9108 19.4565 66.0561C25.6018 72.2014 33.7725 75.5858 42.4634 75.5858C51.1542 75.5858 59.3248 72.2014 65.4703 66.0561C71.6156 59.9108 75 51.74 75 43.0493C74.9999 34.3583 71.6155 26.1877 65.4701 20.0424ZM42.4632 73.2906C25.7881 73.2906 12.222 59.7244 12.222 43.0493C12.222 26.3742 25.7881 12.8079 42.4632 12.8079C59.1383 12.8079 72.7045 26.3742 72.7045 43.0493C72.7045 59.7244 59.1385 73.2906 42.4632 73.2906Z" fill="#2A83B5"/>
</g>
</g>
<defs>
<clipPath id="clip0_549_1821">
<rect width="84.9974" height="84.9974" fill="white" transform="translate(0.363281 0.95459)"/>
</clipPath>
<clipPath id="clip1_549_1821">
<rect width="65.0732" height="65.0732" fill="white" transform="translate(9.92676 10.5127)"/>
</clipPath>
</defs>
</svg>
