<svg width="42" height="42" viewBox="0 0 42 42" fill="none" xmlns="http://www.w3.org/2000/svg">
<rect width="42" height="42" rx="10" fill="#7289DA"/>
<path d="M30.5874 12.2736C30.5797 12.2587 30.567 12.2471 30.5516 12.2408C28.7645 11.4209 26.8787 10.8362 24.9413 10.5014C24.9237 10.4982 24.9055 10.5005 24.8893 10.5082C24.8731 10.5158 24.8598 10.5284 24.8511 10.5441C24.5944 11.0102 24.3612 11.4889 24.1527 11.9785C22.0643 11.6614 19.9399 11.6614 17.8515 11.9785C17.6416 11.4877 17.4047 11.0088 17.142 10.5441C17.133 10.5287 17.1196 10.5165 17.1035 10.5089C17.0874 10.5013 17.0694 10.4987 17.0519 10.5014C15.1142 10.8355 13.2283 11.4202 11.4415 12.2408C11.4262 12.2473 11.4133 12.2584 11.4045 12.2725C7.83131 17.6087 6.85246 22.8136 7.33265 27.9541C7.334 27.9667 7.33787 27.9789 7.34403 27.99C7.35019 28.0011 7.35852 28.0108 7.36851 28.0186C9.44917 29.5591 11.7764 30.7351 14.2509 31.4962C14.2684 31.5014 14.287 31.5012 14.3043 31.4955C14.3215 31.4898 14.3367 31.479 14.3476 31.4645C14.8791 30.7413 15.35 29.9756 15.7556 29.175C15.7612 29.164 15.7644 29.152 15.765 29.1397C15.7655 29.1274 15.7635 29.1151 15.759 29.1036C15.7545 29.0922 15.7476 29.0818 15.7388 29.0732C15.73 29.0646 15.7194 29.058 15.7079 29.0537C14.9652 28.7696 14.2463 28.427 13.5578 28.0294C13.5453 28.022 13.5348 28.0117 13.5272 27.9993C13.5196 27.9869 13.5152 27.9729 13.5144 27.9584C13.5135 27.9439 13.5162 27.9294 13.5223 27.9163C13.5284 27.9031 13.5376 27.8916 13.5491 27.8828C13.6936 27.7746 13.8381 27.662 13.9761 27.5483C13.9884 27.5382 14.0032 27.5317 14.0189 27.5296C14.0347 27.5275 14.0507 27.5298 14.0652 27.5363C18.5759 29.5949 23.4594 29.5949 27.9167 27.5363C27.9313 27.5294 27.9474 27.5267 27.9634 27.5287C27.9794 27.5306 27.9945 27.537 28.0069 27.5472C28.1449 27.6609 28.2894 27.7746 28.435 27.8828C28.4466 27.8915 28.4559 27.9029 28.462 27.9161C28.4682 27.9292 28.471 27.9436 28.4703 27.9581C28.4695 27.9726 28.4652 27.9867 28.4577 27.9991C28.4503 28.0115 28.4398 28.0219 28.4274 28.0294C27.7404 28.4304 27.0208 28.7727 26.2763 29.0526C26.2647 29.057 26.2542 29.0638 26.2455 29.0726C26.2367 29.0813 26.2299 29.0918 26.2255 29.1033C26.221 29.1149 26.2191 29.1273 26.2198 29.1396C26.2205 29.152 26.2238 29.164 26.2294 29.175C26.6418 29.9711 27.112 30.7359 27.6363 31.4632C27.647 31.4781 27.662 31.4893 27.6794 31.4952C27.6967 31.5011 27.7155 31.5014 27.733 31.496C30.212 30.7375 32.5433 29.5615 34.6266 28.0186C34.6367 28.0112 34.6451 28.0017 34.6513 27.9908C34.6575 27.9798 34.6613 27.9677 34.6624 27.9552C35.2373 22.0122 33.7 16.8499 30.5874 12.2736ZM16.4293 24.8241C15.0712 24.8241 13.9522 23.5778 13.9522 22.0473C13.9522 20.5167 15.0495 19.2703 16.4293 19.2703C17.8198 19.2703 18.928 20.5275 18.9063 22.0472C18.9063 23.5778 17.8089 24.8241 16.4293 24.8241ZM25.5877 24.8241C24.2297 24.8241 23.1107 23.5778 23.1107 22.0473C23.1107 20.5167 24.208 19.2703 25.5877 19.2703C26.9783 19.2703 28.0865 20.5275 28.0648 22.0472C28.0648 23.5778 26.9783 24.8241 25.5877 24.8241Z" fill="white"/>
</svg>
