<svg width="43" height="42" viewBox="0 0 43 42" fill="none" xmlns="http://www.w3.org/2000/svg">
<g clip-path="url(#clip0_671_7243)">
<path d="M21.9883 42C33.5863 42 42.9883 32.598 42.9883 21C42.9883 9.40202 33.5863 0 21.9883 0C10.3903 0 0.988281 9.40202 0.988281 21C0.988281 32.598 10.3903 42 21.9883 42Z" fill="#1977F3"/>
<path d="M30.1618 27.0719L31.0921 21.0002H25.2684V17.0607C25.2684 15.401 26.0805 13.7797 28.6911 13.7797H31.3401V8.61166C31.3401 8.61166 28.9363 8.20117 26.6387 8.20117C21.8427 8.20117 18.7065 11.1071 18.7065 16.3726V21.0002H13.373V27.0719H18.7065V41.7462C19.7755 41.9146 20.8711 42.0002 21.9874 42.0002C23.1037 42.0002 24.1994 41.9116 25.2684 41.7462V27.0719H30.1618Z" fill="white"/>
</g>
<defs>
<clipPath id="clip0_671_7243">
<rect width="42" height="42" fill="white" transform="translate(0.988281)"/>
</clipPath>
</defs>
</svg>
