<svg width="42" height="42" viewBox="0 0 42 42" fill="none" xmlns="http://www.w3.org/2000/svg">
<path fill-rule="evenodd" clip-rule="evenodd" d="M20.9984 0.517578C9.40339 0.517578 0 9.91971 0 21.5185C0 30.7956 6.01667 38.6673 14.3616 41.4455C15.4123 41.6378 15.7952 40.9892 15.7952 40.4322C15.7952 39.9333 15.7769 38.6132 15.766 36.8612C9.92461 38.1297 8.69217 34.0456 8.69217 34.0456C7.73687 31.6194 6.36 30.9735 6.36 30.9735C4.45329 29.6714 6.50435 29.6971 6.50435 29.6971C8.61217 29.8455 9.72088 31.8617 9.72088 31.8617C11.5941 35.0705 14.6366 34.1436 15.8329 33.606C16.0237 32.2498 16.5665 31.3241 17.166 30.7994C12.503 30.2683 7.60016 28.4673 7.60016 20.4202C7.60016 18.1267 8.41882 16.2535 9.76214 14.7851C9.54543 14.2539 8.8249 12.119 9.96861 9.22733C9.96861 9.22733 11.7309 8.66271 15.7429 11.3791C17.4176 10.9136 19.2147 10.6816 21.0002 10.6726C22.7844 10.6799 24.5803 10.9137 26.2575 11.3791C30.2669 8.66271 32.0266 9.22733 32.0266 9.22733C33.1727 12.119 32.4521 14.2539 32.2368 14.7851C33.5827 16.2535 34.3949 18.1267 34.3949 20.4202C34.3949 28.4879 29.4843 30.2631 24.8072 30.7826C25.56 31.431 26.2317 32.7126 26.2317 34.6722C26.2317 37.4787 26.2061 39.7438 26.2061 40.4322C26.2061 40.9943 26.5851 41.648 27.65 41.443C35.9885 38.6596 42 30.7943 42 21.5185C42 9.91971 32.5966 0.517578 20.9978 0.517578" fill="#1B1817"/>
</svg>
