<svg width="152" height="64" viewBox="0 0 152 64" fill="none" xmlns="http://www.w3.org/2000/svg">
<g clip-path="url(#clip0_229_252)">
<path d="M0 32C0 49.6731 14.3269 64 32 64C49.6731 64 64 49.6731 64 32C64 14.3269 49.6731 0 32 0C14.3269 0 0 14.3269 0 32Z" fill="#25D366"/>
<path fill-rule="evenodd" clip-rule="evenodd" d="M44.3973 18.3676C40.9387 14.909 36.3571 13 31.4611 13C21.3771 13 13.1797 21.1974 13.1572 31.2814C13.1572 34.5155 13.9882 37.6597 15.6052 40.4221L13 49.8997L22.7022 47.3619C25.3748 48.8217 28.3842 49.5853 31.4386 49.5853C41.5226 49.5853 49.72 41.3878 49.7425 31.2814C49.7649 26.4079 47.856 21.8263 44.3973 18.3676ZM31.4611 46.5084C28.7211 46.5084 26.0485 45.7673 23.7128 44.3973L23.1513 44.0604L17.4019 45.5652L18.9291 39.9505L18.5698 39.3666C17.0426 36.941 16.2341 34.1561 16.2341 31.2814C16.2341 22.9043 23.0615 16.0768 31.4386 16.0768C35.5036 16.0768 39.3216 17.6714 42.1963 20.5461C45.0711 23.4209 46.6432 27.2388 46.6432 31.3039C46.6656 39.681 39.8382 46.5084 31.4611 46.5084ZM39.7933 35.1219C39.3441 34.8973 37.0982 33.7968 36.6715 33.6396C36.2448 33.4824 35.9528 33.415 35.6384 33.8642C35.324 34.3133 34.4481 35.3464 34.201 35.6609C33.9315 35.9753 33.662 35.9977 33.2129 35.7732C32.7637 35.5486 31.2814 35.0545 29.5296 33.5048C28.1596 32.2921 27.2613 30.7873 26.9918 30.3381C26.7223 29.889 26.9693 29.6419 27.1939 29.3949C27.396 29.1927 27.6431 28.8559 27.8901 28.5864C28.1147 28.3169 28.2046 28.1372 28.3393 27.8228C28.4965 27.5083 28.4067 27.2613 28.2944 27.0143C28.1821 26.7897 27.2613 24.5438 26.8795 23.623C26.4977 22.7246 26.1384 22.8594 25.8464 22.8369C25.5769 22.8145 25.2849 22.8145 24.9705 22.8145C24.6561 22.8145 24.162 22.9268 23.7577 23.3759C23.331 23.8251 22.1632 24.948 22.1632 27.1939C22.1632 29.4398 23.8026 31.6183 24.0272 31.9327C24.2518 32.2471 27.2613 36.8512 31.8429 38.8275C32.9434 39.2992 33.7743 39.5687 34.4481 39.7933C35.5486 40.1301 36.5368 40.0852 37.3228 39.9729C38.1987 39.8382 40.0178 38.8725 40.3996 37.7944C40.7814 36.7164 40.7814 35.8181 40.6692 35.6159C40.5569 35.4587 40.2649 35.3464 39.7933 35.1219Z" fill="white"/>
</g>
<rect x="2.5" y="2.5" width="59" height="59" rx="29.5" stroke="#EAC9CB" stroke-opacity="0.5" stroke-width="5"/>
<g clip-path="url(#clip1_229_252)">
<path d="M107.981 0H44.0188C44.0084 0 44 0.00839466 44 0.01875V63.9813C44 63.9916 44.0084 64 44.0188 64H107.981C107.992 64 108 63.9916 108 63.9813V0.01875C108 0.00839466 107.992 0 107.981 0Z" fill="white"/>
<path d="M66.125 15V25.125H56" fill="#EA4335"/>
<path d="M66.125 15V25.125H79.625V32.1L89.75 23.8875V18.375C89.75 16.125 88.625 15 86.375 15" fill="#FFBA00"/>
<path d="M89.7499 23.6626L94.4749 19.8376C95.4874 19.0501 96.4999 19.0501 96.4999 20.6251V43.1251C96.4999 44.7001 95.4874 44.7001 94.4749 43.9126L89.7499 40.0876M65.8999 48.7501V38.6251H79.6249V31.8751L89.7499 39.8626V45.3751C89.7499 47.6251 88.6249 48.7501 86.3749 48.7501" fill="#00AC47"/>
<path d="M56 38.3999V45.3749C56 47.6249 57.125 48.7499 59.375 48.7499H66.125V38.3999" fill="#0066DA"/>
<path d="M56 25.125H66.125V38.625H56" fill="#2684FC"/>
<path d="M79.625 31.8751L89.75 23.6626V40.0876" fill="#00832D"/>
</g>
<rect x="46.5" y="2.5" width="59" height="59" rx="29.5" stroke="#EAC9CB" stroke-opacity="0.5" stroke-width="5"/>
<g clip-path="url(#clip2_229_252)">
<path d="M120 64C137.673 64 152 49.6731 152 32C152 14.3269 137.673 0 120 0C102.327 0 88 14.3269 88 32C88 49.6731 102.327 64 120 64Z" fill="#4A8CFF"/>
<path d="M99.4683 21.9812V37.0193C99.4761 38.6504 100.131 40.2116 101.29 41.3598C102.448 42.5081 104.015 43.1494 105.646 43.1429H127.566C127.863 43.1444 128.148 43.0282 128.358 42.82C128.569 42.6117 128.689 42.3283 128.691 42.032V26.9939C128.683 25.3629 128.028 23.8017 126.87 22.6534C125.711 21.5052 124.144 20.8638 122.513 20.8703H100.6C100.452 20.8687 100.306 20.8962 100.169 20.9512C100.033 21.0062 99.9083 21.0876 99.8032 21.1908C99.6981 21.2941 99.6144 21.417 99.5569 21.5526C99.4995 21.6883 99.4693 21.8339 99.4683 21.9812V21.9812ZM130.086 27.8474L139.136 21.2361C139.922 20.5844 140.532 20.7484 140.532 21.927V42.0862C140.532 43.4274 139.787 43.2649 139.136 42.7758L130.086 36.1793V27.8474Z" fill="white"/>
</g>
<rect x="90.5" y="2.5" width="59" height="59" rx="29.5" stroke="#EAC9CB" stroke-opacity="0.5" stroke-width="5"/>
<defs>
<clipPath id="clip0_229_252">
<rect width="64" height="64" rx="32" fill="white"/>
</clipPath>
<clipPath id="clip1_229_252">
<rect x="44" width="64" height="64" rx="32" fill="white"/>
</clipPath>
<clipPath id="clip2_229_252">
<rect x="88" width="64" height="64" rx="32" fill="white"/>
</clipPath>
</defs>
</svg>
