<svg width="43" height="42" viewBox="0 0 43 42" fill="none" xmlns="http://www.w3.org/2000/svg">
<g clip-path="url(#clip0_671_7250)">
<path d="M22.0009 0C13.2312 0 10.6664 0.00904692 10.1678 0.0504043C8.36813 0.200002 7.24825 0.483364 6.0282 1.0908C5.08797 1.55769 4.34645 2.09889 3.61462 2.85753C2.28181 4.24107 1.47405 5.94318 1.18164 7.96646C1.03948 8.9487 0.998118 9.14902 0.989717 14.1662C0.986486 15.8386 0.989717 18.0396 0.989717 20.9918C0.989717 29.7543 0.99941 32.3166 1.04141 32.8141C1.18681 34.5654 1.46145 35.6672 2.04304 36.8723C3.15452 39.1793 5.27731 40.9111 7.77814 41.5573C8.64406 41.7803 9.60045 41.9031 10.8282 41.9612C11.3484 41.9838 16.6506 42 21.956 42C27.2613 42 32.5667 41.9935 33.074 41.9677C34.4956 41.9008 35.3212 41.79 36.2339 41.5541C37.4739 41.2361 38.6296 40.6513 39.6202 39.8404C40.6107 39.0295 41.4124 38.0122 41.969 36.8594C42.5393 35.6833 42.8285 34.5395 42.9593 32.8797C42.9878 32.5179 42.9997 26.7482 42.9997 20.9863C42.9997 15.2234 42.9868 9.46437 42.9584 9.10249C42.8259 7.41589 42.5367 6.28179 41.948 5.08308C41.465 4.10181 40.9286 3.36901 40.15 2.61973C38.7606 1.29242 37.0611 0.484656 35.0355 0.19257C34.0543 0.0507274 33.8588 0.00872381 28.8377 0H22.0009Z" fill="url(#paint0_radial_671_7250)"/>
<path d="M22.0009 0C13.2312 0 10.6664 0.00904692 10.1678 0.0504043C8.36813 0.200002 7.24825 0.483364 6.0282 1.0908C5.08797 1.55769 4.34645 2.09889 3.61462 2.85753C2.28181 4.24107 1.47405 5.94318 1.18164 7.96646C1.03948 8.9487 0.998118 9.14902 0.989717 14.1662C0.986486 15.8386 0.989717 18.0396 0.989717 20.9918C0.989717 29.7543 0.99941 32.3166 1.04141 32.8141C1.18681 34.5654 1.46145 35.6672 2.04304 36.8723C3.15452 39.1793 5.27731 40.9111 7.77814 41.5573C8.64406 41.7803 9.60045 41.9031 10.8282 41.9612C11.3484 41.9838 16.6506 42 21.956 42C27.2613 42 32.5667 41.9935 33.074 41.9677C34.4956 41.9008 35.3212 41.79 36.2339 41.5541C37.4739 41.2361 38.6296 40.6513 39.6202 39.8404C40.6107 39.0295 41.4124 38.0122 41.969 36.8594C42.5393 35.6833 42.8285 34.5395 42.9593 32.8797C42.9878 32.5179 42.9997 26.7482 42.9997 20.9863C42.9997 15.2234 42.9868 9.46437 42.9584 9.10249C42.8259 7.41589 42.5367 6.28179 41.948 5.08308C41.465 4.10181 40.9286 3.36901 40.15 2.61973C38.7606 1.29242 37.0611 0.484656 35.0355 0.19257C34.0543 0.0507274 33.8588 0.00872381 28.8377 0H22.0009Z" fill="url(#paint1_radial_671_7250)"/>
<path d="M21.9904 5.49316C17.7785 5.49316 17.2499 5.51158 15.5956 5.58686C13.9445 5.66247 12.8175 5.92386 11.8314 6.30739C10.8114 6.70351 9.94609 7.2334 9.08404 8.09577C8.22135 8.95781 7.69146 9.82308 7.29405 10.8428C6.90955 11.8292 6.64784 12.9566 6.57352 14.607C6.49986 16.2613 6.48047 16.7902 6.48047 21.0022C6.48047 25.2142 6.49921 25.7411 6.57417 27.3954C6.6501 29.0465 6.91149 30.1735 7.29469 31.1596C7.69114 32.1796 8.22103 33.0449 9.0834 33.907C9.94512 34.7696 10.8104 35.3008 11.8298 35.697C12.8165 36.0805 13.9439 36.3419 15.5946 36.4175C17.2489 36.4928 17.7772 36.5112 21.9888 36.5112C26.2011 36.5112 26.7281 36.4928 28.3824 36.4175C30.0335 36.3419 31.1618 36.0805 32.1485 35.697C33.1682 35.3008 34.0322 34.7696 34.8939 33.907C35.7566 33.0449 36.2865 32.1796 36.6839 31.1599C37.0652 30.1735 37.3269 29.0462 37.4045 27.3958C37.4788 25.7415 37.4982 25.2142 37.4982 21.0022C37.4982 16.7902 37.4788 16.2616 37.4045 14.6073C37.3269 12.9562 37.0652 11.8292 36.6839 10.8431C36.2865 9.82308 35.7566 8.95781 34.8939 8.09577C34.0312 7.23308 33.1686 6.70319 32.1475 6.30739C31.1588 5.92386 30.0312 5.66247 28.3802 5.58686C26.7259 5.51158 26.1992 5.49316 21.9859 5.49316H21.9904ZM20.5992 8.28802C21.0121 8.28737 21.4728 8.28802 21.9904 8.28802C26.1313 8.28802 26.6221 8.30288 28.2574 8.37719C29.7695 8.44634 30.5902 8.699 31.1369 8.91128C31.8606 9.19239 32.3766 9.52841 32.9191 10.0712C33.4619 10.614 33.798 11.131 34.0797 11.8548C34.292 12.4008 34.545 13.2215 34.6138 14.7336C34.6881 16.3685 34.7043 16.8596 34.7043 20.9986C34.7043 25.1376 34.6881 25.6287 34.6138 27.2636C34.5447 28.7757 34.292 29.5964 34.0797 30.1425C33.7986 30.8662 33.4619 31.3816 32.9191 31.9241C32.3763 32.4669 31.861 32.8029 31.1369 33.084C30.5908 33.2973 29.7695 33.5493 28.2574 33.6184C26.6225 33.6927 26.1313 33.7089 21.9904 33.7089C17.8492 33.7089 17.3584 33.6927 15.7235 33.6184C14.2114 33.5486 13.3907 33.296 12.8437 33.0837C12.1199 32.8026 11.603 32.4666 11.0601 31.9237C10.5173 31.3809 10.1813 30.8653 9.89956 30.1412C9.68728 29.5951 9.43429 28.7744 9.36547 27.2623C9.29115 25.6274 9.27629 25.1363 9.27629 20.9947C9.27629 16.8532 9.29115 16.3647 9.36547 14.7297C9.43461 13.2176 9.68728 12.3969 9.89956 11.8502C10.1807 11.1265 10.5173 10.6095 11.0601 10.0667C11.603 9.52389 12.1199 9.18786 12.8437 8.90611C13.3904 8.69287 14.2114 8.44084 15.7235 8.37138C17.1542 8.30676 17.7087 8.28737 20.5992 8.28414V8.28802ZM30.269 10.8632C29.9009 10.8632 29.5411 10.9723 29.235 11.1769C28.9289 11.3814 28.6904 11.6721 28.5495 12.0122C28.4087 12.3523 28.3719 12.7265 28.4437 13.0876C28.5156 13.4486 28.6929 13.7802 28.9533 14.0405C29.2136 14.3007 29.5453 14.4779 29.9063 14.5496C30.2674 14.6214 30.6416 14.5844 30.9817 14.4435C31.3217 14.3025 31.6123 14.0639 31.8168 13.7577C32.0212 13.4516 32.1302 13.0917 32.1301 12.7236C32.1301 11.6961 31.2965 10.8625 30.269 10.8625V10.8632ZM21.9904 13.0376C17.592 13.0376 14.0259 16.6038 14.0259 21.0022C14.0259 25.4006 17.592 28.9651 21.9904 28.9651C26.3889 28.9651 29.954 25.4006 29.954 21.0022C29.954 16.6038 26.3885 13.0376 21.9901 13.0376H21.9904ZM21.9904 15.8325C24.8454 15.8325 27.1601 18.1469 27.1601 21.0022C27.1601 23.8571 24.8454 26.1718 21.9904 26.1718C19.1352 26.1718 16.8208 23.8571 16.8208 21.0022C16.8208 18.1469 19.1352 15.8325 21.9904 15.8325Z" fill="white"/>
</g>
<defs>
<radialGradient id="paint0_radial_671_7250" cx="0" cy="0" r="1" gradientUnits="userSpaceOnUse" gradientTransform="translate(12.1476 45.2349) rotate(-90) scale(41.6251 38.7252)">
<stop stop-color="#FFDD55"/>
<stop offset="0.1" stop-color="#FFDD55"/>
<stop offset="0.5" stop-color="#FF543E"/>
<stop offset="1" stop-color="#C837AB"/>
</radialGradient>
<radialGradient id="paint1_radial_671_7250" cx="0" cy="0" r="1" gradientUnits="userSpaceOnUse" gradientTransform="translate(-6.04886 3.02561) rotate(78.6776) scale(18.6068 76.7173)">
<stop stop-color="#3771C8"/>
<stop offset="0.128" stop-color="#3771C8"/>
<stop offset="1" stop-color="#6600FF" stop-opacity="0"/>
</radialGradient>
<clipPath id="clip0_671_7250">
<rect width="42.0113" height="42" fill="white" transform="translate(0.988281)"/>
</clipPath>
</defs>
</svg>
